<svg width="15" height="14" viewBox="0 0 15 14" fill="none" xmlns="http://www.w3.org/2000/svg">
<path d="M7.39036 3.4466C6.68692 3.4466 5.99929 3.65519 5.41441 4.046C4.82953 4.4368 4.37367 4.99227 4.10448 5.64215C3.83528 6.29204 3.76485 7.00715 3.90208 7.69707C4.03932 8.38698 4.37805 9.02071 4.87545 9.51811C5.37285 10.0155 6.00658 10.3542 6.6965 10.4915C7.38641 10.6287 8.10152 10.5583 8.75141 10.2891C9.4013 10.0199 9.95676 9.56404 10.3476 8.97916C10.7384 8.39427 10.947 7.70664 10.947 7.00321C10.9477 6.53594 10.8562 6.07313 10.6777 5.64129C10.4992 5.20945 10.2373 4.81708 9.90689 4.48667C9.57648 4.15627 9.18411 3.89432 8.75228 3.71584C8.32044 3.53736 7.85762 3.44587 7.39036 3.4466ZM7.39036 9.31528C6.93307 9.31528 6.48605 9.17968 6.10584 8.92563C5.72562 8.67158 5.42927 8.31048 5.25428 7.888C5.07928 7.46553 5.03349 7.00064 5.12271 6.55215C5.21192 6.10365 5.43212 5.69168 5.75547 5.36833C6.07882 5.04498 6.49079 4.82477 6.93929 4.73556C7.38779 4.64635 7.85267 4.69214 8.27515 4.86713C8.69762 5.04213 9.05872 5.33847 9.31277 5.71869C9.56683 6.09891 9.70243 6.54592 9.70243 7.00321C9.70033 7.61547 9.45597 8.20201 9.02273 8.63465C8.5895 9.06729 8.00262 9.31085 7.39036 9.31211V9.31528ZM11.9224 3.30056C11.9218 3.4644 11.8727 3.62438 11.7812 3.76033C11.6898 3.89627 11.5601 4.00209 11.4086 4.06443C11.2571 4.12676 11.0905 4.14283 10.9298 4.1106C10.7692 4.07836 10.6217 3.99928 10.506 3.88331C10.3902 3.76735 10.3114 3.6197 10.2795 3.459C10.2476 3.2983 10.2639 3.13174 10.3266 2.98034C10.3892 2.82894 10.4953 2.69948 10.6314 2.60829C10.7675 2.5171 10.9276 2.46827 11.0914 2.46796C11.2005 2.46754 11.3087 2.48869 11.4096 2.53021C11.5105 2.57172 11.6022 2.63278 11.6794 2.70986C11.7566 2.78694 11.8179 2.87853 11.8596 2.97936C11.9013 3.08019 11.9226 3.18827 11.9224 3.29738V3.30056ZM14.2782 4.14268C14.3012 3.06279 13.8977 2.01733 13.1551 1.23295C12.37 0.495354 11.3279 0.0935043 10.2509 0.113022C9.10556 0.047938 5.67277 0.047938 4.52745 0.113022C3.44995 0.0915156 2.40678 0.492319 1.62089 1.22977C0.881184 2.01453 0.478797 3.05812 0.500168 4.13633C0.435084 5.28165 0.435084 8.71445 0.500168 9.85977C0.477343 10.9382 0.879935 11.9824 1.62089 12.7663C2.40675 13.5043 3.44959 13.9064 4.52745 13.887C5.67277 13.9521 9.10556 13.9521 10.2509 13.887C11.3285 13.9092 12.3717 13.5067 13.1551 12.7663C13.8935 11.9808 14.2957 10.9377 14.2758 9.85977C14.3409 8.71445 14.3409 5.28483 14.2758 4.13951L14.2782 4.14268ZM12.7987 11.0916C12.681 11.3899 12.5032 11.6609 12.2764 11.8877C12.0497 12.1145 11.7787 12.2923 11.4803 12.41C10.5676 12.7719 8.40075 12.6885 7.39115 12.6885C6.38155 12.6885 4.21234 12.7679 3.30196 12.41C3.00361 12.2923 2.73264 12.1145 2.50586 11.8877C2.27907 11.6609 2.10131 11.3899 1.98361 11.0916C1.62168 10.1788 1.70502 8.01201 1.70502 7.00242C1.70502 5.99282 1.62565 3.82361 1.98361 2.91323C2.10095 2.6143 2.27854 2.34271 2.50535 2.11535C2.73215 1.888 3.00331 1.70976 3.30196 1.5917C4.21473 1.22977 6.38155 1.31311 7.39115 1.31311C8.40075 1.31311 10.57 1.23374 11.4803 1.5917C11.7787 1.7094 12.0497 1.88716 12.2764 2.11395C12.5032 2.34073 12.681 2.61171 12.7987 2.91005C13.1606 3.82282 13.0773 5.98964 13.0773 6.99924C13.0773 8.00884 13.1606 10.1788 12.7987 11.0884V11.0916Z" fill="white"/>
</svg>
