<svg width="15" height="14" viewBox="0 0 15 14" fill="none" xmlns="http://www.w3.org/2000/svg">
<path d="M3.29266 13.9331H0.417851V4.67449H3.29266V13.9331ZM1.85526 3.4117C1.52435 3.41295 1.20049 3.31605 0.924653 3.13324C0.648813 2.95044 0.433375 2.68995 0.305581 2.38471C0.177787 2.07946 0.143378 1.74318 0.206705 1.41838C0.270031 1.09358 0.428249 0.794858 0.661352 0.55998C0.894454 0.325101 1.19197 0.16462 1.51628 0.0988305C1.84059 0.0330404 2.17712 0.0648962 2.48333 0.190369C2.78953 0.315843 3.05165 0.529298 3.23654 0.803743C3.42143 1.07819 3.52079 1.40129 3.52205 1.73221C3.52227 2.17551 3.34713 2.6009 3.03486 2.91555C2.7226 3.23019 2.29855 3.40855 1.85526 3.4117ZM14.0546 13.9331H11.1837V9.42642C11.1837 8.35253 11.1623 6.97465 9.68917 6.97465C8.19461 6.97465 7.96523 8.14141 7.96523 9.34864V13.9331H5.09359V4.67449H7.85093V5.93886H7.88745C8.16312 5.46684 8.5617 5.07846 9.04072 4.81512C9.51973 4.55178 10.0612 4.42335 10.6075 4.44352C13.5172 4.44352 14.0522 6.35953 14.0522 8.8486V13.9347L14.0546 13.9331Z" fill="white"/>
</svg>
