<svg width="385" height="205" viewBox="0 0 385 205" fill="none" xmlns="http://www.w3.org/2000/svg">
<path opacity="0.2" d="M379.793 7.51434L380.175 7.19103L379.793 7.51434ZM267.183 74.8879L266.937 75.3235L267.183 74.8879ZM162.172 81.7702L161.71 81.579L162.172 81.7702ZM94.7887 156.585L95.0077 156.135C94.9826 156.123 94.9566 156.113 94.9298 156.105L94.7887 156.585ZM0.512007 203.891C0.451854 204.161 0.621572 204.428 0.891084 204.488C1.16059 204.548 1.42784 204.378 1.48799 204.109L0.512007 203.891ZM1.82941 202.637C1.89406 202.368 1.72883 202.098 1.46036 202.034C1.1919 201.969 0.921851 202.134 0.857201 202.403L1.82941 202.637ZM1.60688 199.506C1.53309 199.772 1.68899 200.048 1.95509 200.122C2.22119 200.195 2.49672 200.039 2.57051 199.773L1.60688 199.506ZM3.41844 196.917C3.50189 196.654 3.35614 196.373 3.09291 196.289C2.82968 196.206 2.54864 196.352 2.46519 196.615L3.41844 196.917ZM3.41853 193.793C3.32513 194.053 3.46008 194.34 3.71994 194.433C3.97981 194.526 4.26619 194.391 4.35959 194.132L3.41853 193.793ZM5.426 191.343C5.52992 191.087 5.40676 190.795 5.15092 190.692C4.89508 190.588 4.60343 190.711 4.49951 190.967L5.426 191.343ZM5.68766 188.21C5.57295 188.461 5.68359 188.758 5.93477 188.872C6.18596 188.987 6.48258 188.877 6.5973 188.625L5.68766 188.21ZM7.88139 185.97C8.00716 185.724 7.90984 185.423 7.664 185.297C7.41817 185.172 7.11692 185.269 6.99114 185.515L7.88139 185.97ZM8.43014 182.857C8.29297 183.097 8.37606 183.402 8.61572 183.539C8.85538 183.676 9.16087 183.593 9.29804 183.354L8.43014 182.857ZM10.8279 180.824C10.9766 180.591 10.9084 180.282 10.6757 180.134C10.4429 179.985 10.1338 180.053 9.98516 180.286L10.8279 180.824ZM11.6602 177.802C11.5001 178.027 11.5527 178.339 11.7777 178.499C12.0027 178.659 12.3149 178.606 12.475 178.381L11.6602 177.802ZM14.2591 176.006C14.4306 175.79 14.3943 175.475 14.1779 175.304C13.9615 175.132 13.647 175.168 13.4754 175.385L14.2591 176.006ZM15.4078 173.075C15.225 173.282 15.2448 173.598 15.4518 173.781C15.6589 173.963 15.9748 173.944 16.1575 173.736L15.4078 173.075ZM18.1694 171.576C18.3629 171.379 18.3601 171.062 18.1631 170.869C17.9661 170.675 17.6496 170.678 17.4561 170.875L18.1694 171.576ZM19.6208 168.787C19.417 168.973 19.4028 169.289 19.5891 169.493C19.7754 169.697 20.0917 169.711 20.2955 169.525L19.6208 168.787ZM22.5354 167.586C22.749 167.411 22.7803 167.096 22.6052 166.882C22.4302 166.668 22.1151 166.637 21.9016 166.812L22.5354 167.586ZM24.2812 164.966C24.0586 165.13 24.0105 165.443 24.1739 165.665C24.3373 165.888 24.6502 165.936 24.8728 165.773L24.2812 164.966ZM27.3017 164.087C27.5326 163.935 27.597 163.625 27.4455 163.395C27.2941 163.164 26.9841 163.099 26.7532 163.251L27.3017 164.087ZM29.3102 161.667C29.0718 161.806 28.9915 162.112 29.1308 162.351C29.2702 162.589 29.5764 162.669 29.8148 162.53L29.3102 161.667ZM32.4077 161.101C32.6528 160.974 32.7483 160.672 32.6211 160.427C32.4939 160.182 32.1921 160.086 31.947 160.213L32.4077 161.101ZM34.652 158.892C34.401 159.008 34.2908 159.304 34.406 159.555C34.5211 159.806 34.8179 159.916 35.0689 159.801L34.652 158.892ZM37.789 158.63C38.0451 158.527 38.1691 158.236 38.0658 157.98C37.9626 157.724 37.6713 157.6 37.4151 157.703L37.789 158.63ZM40.2288 156.642C39.9682 156.734 39.8313 157.019 39.9229 157.28C40.0145 157.54 40.3 157.677 40.5605 157.586L40.2288 156.642ZM43.3758 156.664C43.64 156.584 43.7892 156.305 43.7089 156.04C43.6287 155.776 43.3494 155.627 43.0852 155.707L43.3758 156.664ZM45.9785 154.894C45.7112 154.963 45.5506 155.236 45.6199 155.503C45.6891 155.771 45.9619 155.931 46.2293 155.862L45.9785 154.894ZM49.1152 155.176C49.385 155.117 49.5563 154.851 49.4977 154.581C49.4392 154.311 49.1729 154.14 48.9031 154.199L49.1152 155.176ZM51.8512 153.618C51.5793 153.666 51.3981 153.925 51.4464 154.197C51.4946 154.469 51.7542 154.65 52.0261 154.602L51.8512 153.618ZM54.9566 154.137C55.2301 154.099 55.4207 153.846 55.3823 153.572C55.3439 153.299 55.0912 153.108 54.8177 153.147L54.9566 154.137ZM57.7975 152.782C57.5229 152.811 57.3236 153.057 57.3524 153.331C57.3812 153.606 57.6272 153.805 57.9019 153.776L57.7975 152.782ZM60.8571 153.517C61.1326 153.497 61.34 153.258 61.3204 152.982C61.3008 152.707 61.0617 152.5 60.7862 152.519L60.8571 153.517ZM63.7826 152.355C63.5067 152.366 63.2916 152.598 63.3023 152.874C63.313 153.15 63.5453 153.365 63.8212 153.354L63.7826 152.355ZM66.7924 153.286C67.0686 153.284 67.2908 153.059 67.2888 152.783C67.2868 152.507 67.0613 152.284 66.7851 152.286L66.7924 153.286ZM69.7876 152.31C69.5115 152.304 69.2825 152.523 69.2761 152.799C69.2697 153.075 69.4883 153.304 69.7644 153.31L69.7876 152.31ZM72.7341 153.423C73.0099 153.438 73.2453 153.226 73.2599 152.951C73.2745 152.675 73.0628 152.439 72.787 152.425L72.7341 153.423ZM75.7809 152.628C75.5057 152.605 75.2642 152.81 75.2415 153.085C75.2188 153.36 75.4235 153.602 75.6987 153.624L75.7809 152.628ZM78.6558 153.911C78.9302 153.942 79.1776 153.745 79.2083 153.47C79.2389 153.196 79.0413 152.948 78.7669 152.918L78.6558 153.911ZM81.7429 153.294C81.4695 153.256 81.2165 153.446 81.1778 153.719C81.1392 153.993 81.3295 154.246 81.6029 154.284L81.7429 153.294ZM84.5377 154.744C84.8099 154.791 85.0684 154.608 85.1152 154.336C85.1619 154.063 84.9792 153.805 84.707 153.758L84.5377 154.744ZM87.6571 154.311C87.3865 154.256 87.1225 154.431 87.0675 154.701C87.0125 154.972 87.1872 155.236 87.4578 155.291L87.6571 154.311ZM90.3597 155.929C90.6284 155.993 90.8979 155.827 90.9616 155.558C91.0253 155.29 90.8591 155.02 90.5904 154.956L90.3597 155.929ZM93.5026 155.7C93.2363 155.627 92.9612 155.783 92.8882 156.05C92.8152 156.316 92.9719 156.591 93.2382 156.664L93.5026 155.7ZM95.9836 157.692C96.236 157.804 96.5314 157.691 96.6433 157.438C96.7553 157.186 96.6414 156.89 96.389 156.778L95.9836 157.692ZM99.1292 157.871C98.8689 157.779 98.5832 157.916 98.4912 158.176C98.3992 158.436 98.5357 158.722 98.7961 158.814L99.1292 157.871ZM101.701 159.699C101.969 159.768 102.241 159.606 102.309 159.339C102.378 159.071 102.216 158.799 101.949 158.73L101.701 159.699ZM104.856 159.319C104.583 159.278 104.329 159.467 104.288 159.74C104.248 160.013 104.436 160.267 104.71 160.308L104.856 159.319ZM107.763 160.586C108.039 160.595 108.27 160.379 108.279 160.103C108.288 159.827 108.072 159.596 107.796 159.587L107.763 160.586ZM110.738 159.506C110.463 159.531 110.26 159.773 110.284 160.048C110.309 160.324 110.552 160.527 110.827 160.502L110.738 159.506ZM113.858 160.038C114.127 159.979 114.298 159.713 114.24 159.443C114.181 159.173 113.914 159.002 113.645 159.061L113.858 160.038ZM116.474 158.257C116.214 158.348 116.077 158.634 116.169 158.894C116.26 159.155 116.546 159.292 116.806 159.2L116.474 158.257ZM119.63 158.017C119.879 157.896 119.982 157.597 119.861 157.349C119.74 157.101 119.44 156.998 119.192 157.119L119.63 158.017ZM121.774 155.686C121.54 155.832 121.468 156.14 121.614 156.375C121.761 156.609 122.069 156.68 122.303 156.534L121.774 155.686ZM124.813 154.8C125.033 154.633 125.076 154.319 124.909 154.099C124.742 153.879 124.428 153.836 124.209 154.003L124.813 154.8ZM126.495 152.115C126.289 152.299 126.271 152.615 126.455 152.821C126.639 153.026 126.956 153.044 127.161 152.86L126.495 152.115ZM129.356 150.756C129.549 150.558 129.545 150.242 129.348 150.049C129.15 149.856 128.833 149.86 128.641 150.058L129.356 150.756ZM130.655 147.864C130.474 148.073 130.497 148.389 130.706 148.569C130.914 148.75 131.23 148.728 131.411 148.519L130.655 147.864ZM133.339 146.175C133.509 145.957 133.471 145.643 133.253 145.473C133.035 145.303 132.721 145.341 132.551 145.559L133.339 146.175ZM134.34 143.162C134.179 143.386 134.232 143.699 134.456 143.859C134.681 144.019 134.994 143.967 135.154 143.742L134.34 143.162ZM136.866 141.241C137.018 141.011 136.954 140.701 136.723 140.549C136.492 140.397 136.182 140.461 136.03 140.692L136.866 141.241ZM137.628 138.17C137.484 138.406 137.559 138.714 137.794 138.858C138.03 139.002 138.337 138.927 138.482 138.692L137.628 138.17ZM140.019 136.092C140.156 135.852 140.073 135.547 139.833 135.409C139.593 135.272 139.288 135.355 139.151 135.595L140.019 136.092ZM140.606 132.974C140.475 133.217 140.565 133.521 140.809 133.652C141.052 133.783 141.355 133.692 141.486 133.449L140.606 132.974ZM142.89 130.771C143.016 130.525 142.918 130.224 142.672 130.098C142.426 129.973 142.125 130.07 141.999 130.316L142.89 130.771ZM143.335 127.633C143.215 127.881 143.318 128.18 143.567 128.301C143.815 128.422 144.114 128.318 144.235 128.07L143.335 127.633ZM145.528 125.346C145.645 125.095 145.536 124.798 145.285 124.682C145.035 124.566 144.738 124.674 144.621 124.925L145.528 125.346ZM145.864 122.192C145.752 122.445 145.865 122.74 146.117 122.853C146.37 122.965 146.665 122.852 146.778 122.6L145.864 122.192ZM147.987 119.836C148.096 119.582 147.979 119.288 147.725 119.179C147.472 119.07 147.178 119.187 147.069 119.441L147.987 119.836ZM148.237 116.676C148.131 116.931 148.252 117.224 148.507 117.33C148.762 117.436 149.055 117.315 149.161 117.06L148.237 116.676ZM150.304 114.27C150.407 114.014 150.284 113.723 150.028 113.619C149.771 113.516 149.48 113.64 149.377 113.896L150.304 114.27ZM150.49 111.104C150.389 111.361 150.515 111.652 150.772 111.753C151.029 111.854 151.319 111.728 151.42 111.471L150.49 111.104ZM152.513 108.666C152.612 108.408 152.484 108.119 152.226 108.02C151.969 107.92 151.679 108.049 151.58 108.306L152.513 108.666ZM152.652 105.499C152.555 105.757 152.685 106.045 152.943 106.143C153.201 106.241 153.49 106.111 153.588 105.853L152.652 105.499ZM154.649 103.031C154.746 102.772 154.615 102.484 154.356 102.387C154.097 102.291 153.809 102.422 153.712 102.681L154.649 103.031ZM154.762 99.8607C154.666 100.12 154.798 100.407 155.057 100.503C155.316 100.599 155.603 100.467 155.699 100.208L154.762 99.8607ZM156.742 97.3885C156.838 97.1295 156.705 96.8419 156.446 96.7463C156.187 96.6506 155.9 96.7831 155.804 97.0421L156.742 97.3885ZM156.844 94.2278C156.748 94.4867 156.88 94.7744 157.139 94.8702C157.398 94.966 157.686 94.8337 157.781 94.5748L156.844 94.2278ZM158.831 91.7493C158.927 91.4906 158.796 91.2026 158.537 91.106C158.278 91.0095 157.99 91.1409 157.894 91.3997L158.831 91.7493ZM158.956 88.5754C158.858 88.8336 158.988 89.1223 159.246 89.2202C159.504 89.3182 159.793 89.1882 159.891 88.9301L158.956 88.5754ZM160.969 86.1219C161.069 85.8645 160.941 85.5747 160.684 85.4746C160.427 85.3744 160.137 85.5019 160.037 85.7592L160.969 86.1219ZM161.148 82.9542C161.044 83.2103 161.168 83.5017 161.424 83.6051C161.68 83.7085 161.971 83.5849 162.075 83.3288L161.148 82.9542ZM163.201 80.5928C163.307 80.3378 163.186 80.0452 162.931 79.9392C162.676 79.8333 162.383 79.9541 162.277 80.2091L163.201 80.5928ZM163.438 77.4562C163.329 77.7099 163.446 78.004 163.7 78.113C163.954 78.2221 164.248 78.1049 164.357 77.8512L163.438 77.4562ZM165.556 75.1412C165.671 74.8901 165.561 74.5934 165.31 74.4785C165.059 74.3636 164.762 74.474 164.647 74.725L165.556 75.1412ZM165.936 72.0237C165.813 72.2708 165.913 72.5711 166.16 72.6944C166.407 72.8176 166.707 72.7173 166.831 72.4702L165.936 72.0237ZM168.205 69.8539C168.339 69.6125 168.252 69.3081 168.011 69.1741C167.769 69.0402 167.465 69.1273 167.331 69.3688L168.205 69.8539ZM168.857 66.7808C168.71 67.0146 168.781 67.3233 169.014 67.4701C169.248 67.617 169.557 67.5464 169.704 67.3126L168.857 66.7808ZM171.347 64.8701C171.509 64.6462 171.458 64.3336 171.234 64.172C171.01 64.0103 170.698 64.0607 170.536 64.2846L171.347 64.8701ZM172.388 61.9087C172.21 62.1198 172.237 62.4353 172.448 62.6133C172.659 62.7913 172.975 62.7644 173.153 62.5533L172.388 61.9087ZM175.135 60.3922C175.33 60.1969 175.33 59.8804 175.135 59.6851C174.94 59.4899 174.623 59.4899 174.428 59.6852L175.135 60.3922ZM176.66 57.6486C176.447 57.8249 176.418 58.1401 176.594 58.3527C176.771 58.5652 177.086 58.5945 177.298 58.4181L176.66 57.6486ZM179.64 56.6606C179.869 56.5059 179.929 56.1951 179.774 55.9663C179.62 55.7376 179.309 55.6775 179.08 55.8321L179.64 56.6606ZM181.671 54.2633C181.428 54.3943 181.337 54.6976 181.468 54.9407C181.599 55.1838 181.903 55.2746 182.146 55.1436L181.671 54.2633ZM184.783 53.8858C185.038 53.7792 185.158 53.4863 185.052 53.2316C184.945 52.9768 184.652 52.8567 184.397 52.9633L184.783 53.8858ZM187.235 51.9306C186.971 52.013 186.824 52.2934 186.907 52.557C186.989 52.8206 187.269 52.9674 187.533 52.8851L187.235 51.9306ZM190.367 52.1337C190.637 52.0743 190.807 51.8076 190.748 51.5379C190.689 51.2682 190.422 51.0977 190.152 51.1571L190.367 52.1337ZM193.125 50.6261C192.851 50.6642 192.66 50.9167 192.698 51.1903C192.736 51.4638 192.989 51.6546 193.263 51.6166L193.125 50.6261ZM196.189 51.3152C196.465 51.2964 196.673 51.0578 196.654 50.7823C196.635 50.5068 196.397 50.2987 196.121 50.3176L196.189 51.3152ZM199.11 50.2075C198.834 50.2093 198.612 50.4346 198.613 50.7108C198.615 50.9869 198.841 51.2093 199.117 51.2075L199.11 50.2075ZM202.052 51.2703C202.328 51.2836 202.563 51.0708 202.576 50.795C202.589 50.5191 202.376 50.2848 202.101 50.2715L202.052 51.2703ZM205.095 50.4905C204.82 50.4638 204.576 50.6649 204.549 50.9398C204.522 51.2146 204.724 51.4591 204.999 51.4858L205.095 50.4905ZM207.962 51.8401C208.235 51.8787 208.488 51.6883 208.527 51.4149C208.565 51.1415 208.375 50.8885 208.102 50.8499L207.962 51.8401ZM211.026 51.3206C210.755 51.2716 210.495 51.4523 210.446 51.7241C210.397 51.9958 210.577 52.2558 210.849 52.3047L211.026 51.3206ZM213.749 52.879C214.019 52.9372 214.285 52.7655 214.343 52.4955C214.401 52.2256 214.23 51.9596 213.96 51.9014L213.749 52.879ZM216.903 52.5843C216.635 52.5178 216.364 52.6812 216.297 52.9492C216.231 53.2172 216.394 53.4884 216.662 53.5548L216.903 52.5843ZM219.49 54.298C219.757 54.3717 220.032 54.2157 220.106 53.9496C220.18 53.6835 220.024 53.408 219.758 53.3343L219.49 54.298ZM222.661 54.1791C222.397 54.0987 222.118 54.2476 222.037 54.5118C221.957 54.776 222.106 55.0553 222.37 55.1357L222.661 54.1791ZM225.163 56.0205C225.425 56.1067 225.707 55.9641 225.794 55.7017C225.88 55.4394 225.737 55.1568 225.475 55.0705L225.163 56.0205ZM228.328 56.0426C228.068 55.9509 227.782 56.0877 227.69 56.3481C227.599 56.6086 227.735 56.8941 227.996 56.9858L228.328 56.0426ZM230.757 57.9878C231.016 58.0844 231.304 57.953 231.4 57.6943C231.497 57.4356 231.365 57.1476 231.107 57.051L230.757 57.9878ZM233.926 58.132C233.669 58.0309 233.378 58.1572 233.277 58.4142C233.176 58.6711 233.302 58.9614 233.559 59.0625L233.926 58.132ZM236.277 60.1569C236.532 60.2621 236.825 60.1403 236.93 59.885C237.035 59.6296 236.913 59.3374 236.658 59.2323L236.277 60.1569ZM239.462 60.412C239.208 60.303 238.914 60.4204 238.805 60.6741C238.696 60.9278 238.814 61.2219 239.067 61.3308L239.462 60.412ZM241.733 62.4973C241.985 62.6096 242.281 62.4963 242.393 62.244C242.505 61.9918 242.392 61.6962 242.14 61.5838L241.733 62.4973ZM244.883 62.8276C244.632 62.7119 244.335 62.8215 244.22 63.0723C244.104 63.323 244.214 63.6201 244.464 63.7357L244.883 62.8276ZM247.138 64.9881C247.388 65.1067 247.686 65.0007 247.805 64.7513C247.923 64.5019 247.817 64.2036 247.568 64.085L247.138 64.9881ZM250.245 65.3764C249.997 65.255 249.697 65.3577 249.576 65.6058C249.454 65.8538 249.557 66.1533 249.805 66.2746L250.245 65.3764ZM252.511 67.6163C252.758 67.7402 253.058 67.6407 253.182 67.394C253.306 67.1472 253.206 66.8467 252.96 66.7227L252.511 67.6163ZM255.568 68.0491C255.322 67.9228 255.021 68.0194 254.895 68.2649C254.768 68.5105 254.865 68.812 255.11 68.9383L255.568 68.0491ZM257.763 70.3192C258.008 70.4479 258.31 70.354 258.439 70.1097C258.567 69.8653 258.473 69.563 258.229 69.4343L257.763 70.3192ZM260.872 70.8409C260.629 70.7101 260.326 70.8013 260.195 71.0445C260.065 71.2877 260.156 71.5909 260.399 71.7216L260.872 70.8409ZM262.978 73.1222C263.22 73.2549 263.524 73.1662 263.657 72.9241C263.79 72.6819 263.701 72.378 263.459 72.2453L262.978 73.1222ZM266.093 73.7032C265.852 73.5685 265.547 73.6548 265.413 73.8959C265.278 74.137 265.364 74.4416 265.606 74.5762L266.093 73.7032ZM268.301 76.0812C268.543 76.2139 268.847 76.1251 268.979 75.8829C269.112 75.6408 269.023 75.3369 268.781 75.2042L268.301 76.0812ZM271.468 76.6344C271.223 76.5077 270.921 76.6038 270.794 76.8491C270.667 77.0945 270.764 77.3961 271.009 77.5228L271.468 76.6344ZM273.693 78.8676C273.941 78.9882 274.241 78.8846 274.361 78.6361C274.482 78.3877 274.378 78.0886 274.13 77.968L273.693 78.8676ZM276.873 79.2553C276.622 79.1413 276.325 79.2529 276.211 79.5044C276.098 79.756 276.209 80.0522 276.461 80.1662L276.873 79.2553ZM279.26 81.3881C279.515 81.495 279.808 81.3753 279.915 81.1207C280.022 80.8661 279.902 80.573 279.647 80.4661L279.26 81.3881ZM282.392 81.5734C282.135 81.4738 281.845 81.6018 281.745 81.8593C281.646 82.1169 281.774 82.4064 282.031 82.5061L282.392 81.5734ZM284.931 83.5775C285.191 83.6692 285.477 83.5324 285.569 83.2719C285.66 83.0114 285.523 82.7259 285.263 82.6342L284.931 83.5775ZM288.107 83.5859C287.844 83.5024 287.562 83.6481 287.479 83.9113C287.395 84.1746 287.541 84.4556 287.804 84.5391L288.107 83.5859ZM290.712 85.4097C290.978 85.4845 291.254 85.3297 291.329 85.0639C291.404 84.7981 291.249 84.5219 290.983 84.4471L290.712 85.4097ZM293.912 85.2179C293.643 85.1523 293.373 85.3165 293.307 85.5847C293.241 85.8529 293.406 86.1236 293.674 86.1892L293.912 85.2179ZM296.602 86.8522C296.872 86.9084 297.137 86.7348 297.193 86.4645C297.25 86.1941 297.076 85.9294 296.806 85.8732L296.602 86.8522ZM299.801 86.4384C299.529 86.3923 299.271 86.5756 299.224 86.8479C299.178 87.1202 299.362 87.3783 299.634 87.4244L299.801 86.4384ZM302.623 87.8729C302.897 87.9086 303.148 87.7157 303.183 87.4419C303.219 87.168 303.026 86.9171 302.752 86.8813L302.623 87.8729ZM305.758 87.2141C305.483 87.1891 305.24 87.3919 305.215 87.6669C305.19 87.9419 305.393 88.1851 305.668 88.21L305.758 87.2141ZM308.699 88.4234C308.975 88.4372 309.21 88.2248 309.223 87.949C309.237 87.6732 309.025 87.4384 308.749 87.4246L308.699 88.4234ZM311.757 87.5127C311.481 87.5104 311.255 87.7324 311.252 88.0085C311.25 88.2846 311.472 88.5104 311.748 88.5127L311.757 87.5127ZM314.796 88.4738C315.072 88.4644 315.288 88.2331 315.279 87.9571C315.269 87.6811 315.038 87.465 314.762 87.4744L314.796 88.4738ZM317.759 87.3075C317.484 87.3288 317.278 87.5693 317.3 87.8446C317.321 88.1199 317.561 88.3259 317.837 88.3045L317.759 87.3075ZM320.873 88.0021C321.148 87.9687 321.343 87.7194 321.309 87.4453C321.276 87.1712 321.027 86.9761 320.752 87.0095L320.873 88.0021ZM323.723 86.5805C323.45 86.6261 323.266 86.8838 323.312 87.1561C323.357 87.4285 323.615 87.6124 323.887 87.5668L323.723 86.5805ZM326.886 86.9964C327.156 86.9387 327.328 86.673 327.27 86.403C327.212 86.1329 326.947 85.9608 326.677 86.0185L326.886 86.9964ZM329.598 85.3256C329.331 85.3953 329.171 85.6685 329.241 85.9357C329.31 86.2029 329.583 86.3629 329.851 86.2932L329.598 85.3256ZM332.784 85.4569C333.047 85.3753 333.195 85.0953 333.113 84.8315C333.032 84.5677 332.752 84.42 332.488 84.5017L332.784 85.4569ZM335.338 83.549C335.078 83.6424 334.943 83.9287 335.037 84.1886C335.13 84.4485 335.417 84.5835 335.676 84.4901L335.338 83.549ZM338.52 83.3966C338.776 83.2918 338.898 82.9997 338.793 82.7442C338.688 82.4887 338.396 82.3666 338.141 82.4714L338.52 83.3966ZM340.898 81.2687C340.648 81.3846 340.539 81.6817 340.655 81.9324C340.771 82.183 341.068 82.2922 341.318 82.1763L340.898 81.2687ZM344.053 80.8388C344.298 80.7121 344.394 80.4105 344.268 80.1652C344.141 79.9198 343.839 79.8235 343.594 79.9502L344.053 80.8388ZM346.24 78.5116C346 78.6487 345.917 78.9541 346.054 79.1938C346.191 79.4336 346.496 79.5168 346.736 79.3797L346.24 78.5116ZM349.343 77.8153C349.577 77.6683 349.647 77.3596 349.5 77.1259C349.353 76.8921 349.045 76.8218 348.811 76.9688L349.343 77.8153ZM351.329 75.3111C351.102 75.4677 351.044 75.779 351.201 76.0064C351.357 76.2339 351.669 76.2914 351.896 76.1348L351.329 75.3111ZM354.367 74.3589C354.588 74.1933 354.633 73.8799 354.467 73.6589C354.301 73.438 353.988 73.3932 353.767 73.5589L354.367 74.3589ZM356.14 71.7036C355.926 71.8779 355.894 72.1929 356.068 72.407C356.243 72.6211 356.558 72.6533 356.772 72.479L356.14 71.7036ZM359.095 70.5095C359.303 70.3269 359.322 70.0109 359.14 69.8038C358.957 69.5967 358.641 69.5768 358.434 69.7595L359.095 70.5095ZM360.652 67.7262C360.452 67.9167 360.444 68.2332 360.635 68.4331C360.825 68.633 361.142 68.6406 361.342 68.4501L360.652 67.7262ZM363.509 66.3044C363.701 66.1064 363.697 65.7898 363.499 65.5973C363.301 65.4048 362.984 65.4093 362.792 65.6073L363.509 66.3044ZM364.844 63.4151C364.659 63.6201 364.676 63.9363 364.881 64.1212C365.086 64.3061 365.402 64.2898 365.587 64.0847L364.844 63.4151ZM367.589 61.7781C367.766 61.5662 367.738 61.2509 367.526 61.0738C367.315 60.8967 366.999 60.9249 366.822 61.1367L367.589 61.7781ZM368.705 58.7976C368.536 59.0159 368.576 59.33 368.794 59.4991C369.012 59.6682 369.326 59.6284 369.495 59.4101L368.705 58.7976ZM371.32 56.9625C371.481 56.7381 371.43 56.4257 371.205 56.2648C370.981 56.1039 370.668 56.1554 370.507 56.3798L371.32 56.9625ZM372.216 53.9014C372.063 54.1316 372.126 54.4419 372.356 54.5943C372.587 54.7467 372.897 54.6836 373.049 54.4534L372.216 53.9014ZM374.68 51.8871C374.824 51.6513 374.749 51.3436 374.513 51.2C374.277 51.0563 373.97 51.131 373.826 51.3668L374.68 51.8871ZM375.347 48.7587C375.213 48.9998 375.299 49.3044 375.54 49.4389C375.782 49.5735 376.086 49.487 376.221 49.2459L375.347 48.7587ZM377.65 46.563C377.775 46.3167 377.676 46.0158 377.43 45.8908C377.184 45.7658 376.883 45.864 376.758 46.1103L377.65 46.563ZM378.067 43.398C377.952 43.6491 378.063 43.9458 378.314 44.0607C378.565 44.1757 378.861 44.0653 378.976 43.8142L378.067 43.398ZM380.19 41.0091C380.294 40.7534 380.171 40.4616 379.916 40.3574C379.66 40.2532 379.368 40.376 379.264 40.6317L380.19 41.0091ZM380.333 37.8356C380.24 38.0957 380.375 38.3818 380.636 38.4746C380.896 38.5674 381.182 38.4318 381.275 38.1717L380.333 37.8356ZM382.234 35.2673C382.315 35.0031 382.166 34.7238 381.902 34.6434C381.637 34.5631 381.358 34.7122 381.278 34.9764L382.234 35.2673ZM382.08 32.0738C382.014 32.3418 382.177 32.6131 382.445 32.6797C382.713 32.7463 382.984 32.583 383.051 32.315L382.08 32.0738ZM383.704 29.336C383.755 29.0647 383.577 28.8031 383.306 28.7518C383.034 28.7004 382.773 28.8787 382.721 29.15L383.704 29.336ZM383.185 26.207C383.151 26.481 383.345 26.7309 383.619 26.765C383.893 26.7992 384.143 26.6048 384.177 26.3308L383.185 26.207ZM384.45 23.2614C384.464 22.9857 384.252 22.7506 383.976 22.7365C383.701 22.7223 383.465 22.9344 383.451 23.2102L384.45 23.2614ZM383.481 20.2175C383.491 20.4934 383.722 20.7096 383.998 20.7003C384.274 20.691 384.49 20.4597 384.481 20.1838L383.481 20.2175ZM384.226 17.1151C384.189 16.8415 383.937 16.6498 383.663 16.687C383.389 16.7243 383.198 16.9762 383.235 17.2499L384.226 17.1151ZM382.661 14.3431C382.732 14.61 383.006 14.7691 383.273 14.6984C383.539 14.6277 383.699 14.3539 383.628 14.087L382.661 14.3431ZM382.616 11.1582C382.505 10.9051 382.21 10.7896 381.957 10.9001C381.704 11.0106 381.589 11.3054 381.699 11.5584L382.616 11.1582ZM380.291 8.99338C380.446 9.22155 380.757 9.28042 380.986 9.12488C381.214 8.96934 381.273 8.65828 381.117 8.43011L380.291 8.99338ZM379.095 5.99822C378.902 5.79996 378.586 5.79506 378.388 5.98728C378.189 6.1795 378.184 6.49604 378.377 6.6943L379.095 5.99822ZM376.105 4.67771C376.325 4.84388 376.639 4.79981 376.805 4.57926C376.971 4.35872 376.927 4.04522 376.707 3.87904L376.105 4.67771ZM373.984 2.18832C373.737 2.06532 373.437 2.16603 373.314 2.41326C373.191 2.6605 373.291 2.96063 373.539 3.08363L373.984 2.18832ZM370.716 2.01595C370.983 2.08703 371.256 1.92833 371.328 1.66149C371.399 1.39465 371.24 1.12072 370.973 1.04964L370.716 2.01595ZM367.802 0.535355C367.526 0.51777 367.288 0.726918 367.271 1.0025C367.253 1.27808 367.462 1.51574 367.738 1.53333L367.802 0.535355ZM364.708 1.61086C364.983 1.58056 365.181 1.33348 365.15 1.05901C365.12 0.784534 364.873 0.586596 364.598 0.616901L364.708 1.61086ZM361.458 1.20257C361.19 1.27191 361.03 1.54481 361.099 1.8121C361.168 2.0794 361.441 2.23987 361.709 2.17054L361.458 1.20257ZM358.799 3.11459C359.056 3.01491 359.184 2.72533 359.085 2.46781C358.985 2.21029 358.695 2.08234 358.438 2.18203L358.799 3.11459ZM355.542 3.46672C355.295 3.58991 355.194 3.89012 355.317 4.13726C355.441 4.3844 355.741 4.48488 355.988 4.36169L355.542 3.46672ZM353.282 5.84555C353.519 5.70399 353.596 5.39703 353.455 5.15993C353.313 4.92283 353.006 4.84538 352.769 4.98694L353.282 5.84555ZM350.116 6.68943C349.889 6.84559 349.831 7.15681 349.987 7.38455C350.143 7.6123 350.454 7.67033 350.682 7.51417L350.116 6.68943ZM348.176 9.33491C348.395 9.16687 348.437 8.853 348.269 8.63388C348.1 8.41476 347.787 8.37335 347.568 8.54139L348.176 9.33491ZM345.117 10.5135C344.906 10.6914 344.879 11.0068 345.057 11.218C345.235 11.4292 345.55 11.4562 345.762 11.2783L345.117 10.5135ZM343.43 13.3259C343.634 13.1396 343.648 12.8233 343.462 12.6195C343.276 12.4157 342.959 12.4015 342.756 12.5878L343.43 13.3259ZM340.476 14.75C340.279 14.9436 340.277 15.2601 340.47 15.457C340.664 15.654 340.98 15.6566 341.177 15.463L340.476 14.75ZM338.999 17.6783C339.19 17.4782 339.182 17.1617 338.982 16.9714C338.782 16.7811 338.465 16.789 338.275 16.9891L338.999 17.6783ZM336.148 19.2975C335.964 19.5035 335.982 19.8195 336.188 20.0034C336.394 20.1873 336.71 20.1694 336.894 19.9634L336.148 19.2975ZM334.86 22.3137C335.037 22.1021 335.01 21.7868 334.798 21.6093C334.587 21.4318 334.271 21.4594 334.094 21.6709L334.86 22.3137ZM332.112 24.1081C331.942 24.3251 331.979 24.6395 332.196 24.8103C332.413 24.9811 332.727 24.9437 332.898 24.7267L332.112 24.1081ZM331.02 27.194C331.183 26.9714 331.136 26.6585 330.913 26.4949C330.691 26.3314 330.378 26.3792 330.214 26.6017L331.02 27.194ZM1.48799 204.109C1.59851 203.614 1.71233 203.123 1.82941 202.637L0.857201 202.403C0.73881 202.894 0.623729 203.391 0.512007 203.891L1.48799 204.109ZM2.57051 199.773C2.83976 198.802 3.12255 197.85 3.41844 196.917L2.46519 196.615C2.16557 197.56 1.87933 198.524 1.60688 199.506L2.57051 199.773ZM4.35959 194.132C4.70102 193.182 5.05667 192.252 5.426 191.343L4.49951 190.967C4.125 191.889 3.7645 192.831 3.41853 193.793L4.35959 194.132ZM6.5973 188.625C7.01121 187.719 7.43945 186.834 7.88139 185.97L6.99114 185.515C6.54237 186.392 6.10768 187.29 5.68766 188.21L6.5973 188.625ZM9.29804 183.354C9.79366 182.488 10.3039 181.645 10.8279 180.824L9.98516 180.286C9.45231 181.12 8.93374 181.977 8.43014 182.857L9.29804 183.354ZM12.475 178.381C13.0554 177.566 13.6504 176.774 14.2591 176.006L13.4754 175.385C12.8559 176.166 12.2506 176.972 11.6602 177.802L12.475 178.381ZM16.1575 173.736C16.8146 172.992 17.4855 172.272 18.1694 171.576L17.4561 170.875C16.7597 171.584 16.0766 172.317 15.4078 173.075L16.1575 173.736ZM20.2955 169.525C21.0295 168.854 21.7765 168.208 22.5354 167.586L21.9016 166.812C21.1288 167.446 20.3683 168.103 19.6208 168.787L20.2955 169.525ZM24.8728 165.773C25.6713 165.187 26.4813 164.625 27.3017 164.087L26.7532 163.251C25.9184 163.798 25.094 164.37 24.2812 164.966L24.8728 165.773ZM29.8148 162.53C30.6697 162.03 31.5344 161.554 32.4077 161.101L31.947 160.213C31.0591 160.674 30.1798 161.158 29.3102 161.667L29.8148 162.53ZM35.0689 159.801C35.9683 159.389 36.8754 158.999 37.789 158.63L37.4151 157.703C36.4873 158.077 35.5659 158.473 34.652 158.892L35.0689 159.801ZM40.5605 157.586C41.4938 157.257 42.4327 156.951 43.3758 156.664L43.0852 155.707C42.1286 155.998 41.176 156.309 40.2288 156.642L40.5605 157.586ZM46.2293 155.862C47.1884 155.614 48.1508 155.385 49.1152 155.176L48.9031 154.199C47.9261 154.411 46.9508 154.642 45.9785 154.894L46.2293 155.862ZM52.0261 154.602C53.0026 154.429 53.9799 154.274 54.9566 154.137L54.8177 153.147C53.8292 153.285 52.84 153.442 51.8512 153.618L52.0261 154.602ZM57.9019 153.776C58.8892 153.673 59.8747 153.587 60.8571 153.517L60.7862 152.519C59.7929 152.59 58.7962 152.677 57.7975 152.782L57.9019 153.776ZM63.8212 153.354C64.8167 153.316 65.8076 153.294 66.7924 153.286L66.7851 152.286C65.7901 152.294 64.7888 152.316 63.7826 152.355L63.8212 153.354ZM69.7644 153.31C70.7627 153.333 71.7531 153.371 72.7341 153.423L72.787 152.425C71.7963 152.372 70.796 152.334 69.7876 152.31L69.7644 153.31ZM75.6987 153.624C76.6968 153.707 77.6831 153.803 78.6558 153.911L78.7669 152.918C77.7847 152.808 76.7888 152.711 75.7809 152.628L75.6987 153.624ZM81.6029 154.284C82.5989 154.425 83.5779 154.579 84.5377 154.744L84.707 153.758C83.7375 153.592 82.7488 153.437 81.7429 153.294L81.6029 154.284ZM87.4578 155.291C88.4507 155.493 89.4189 155.706 90.3597 155.929L90.5904 154.956C89.6391 154.731 88.6604 154.515 87.6571 154.311L87.4578 155.291ZM93.2382 156.664C93.717 156.795 94.1869 156.929 94.6475 157.064L94.9298 156.105C94.4632 155.968 93.9873 155.833 93.5026 155.7L93.2382 156.664ZM94.5697 157.034C95.0442 157.266 95.5155 157.485 95.9836 157.692L96.389 156.778C95.9321 156.576 95.4717 156.361 95.0077 156.135L94.5697 157.034ZM98.7961 158.814C99.7788 159.161 100.747 159.456 101.701 159.699L101.949 158.73C101.024 158.495 100.085 158.209 99.1292 157.871L98.7961 158.814ZM104.71 160.308C105.745 160.461 106.762 160.553 107.763 160.586L107.796 159.587C106.834 159.555 105.855 159.467 104.856 159.319L104.71 160.308ZM110.827 160.502C111.857 160.41 112.867 160.254 113.858 160.038L113.645 159.061C112.694 159.268 111.726 159.418 110.738 159.506L110.827 160.502ZM116.806 159.2C117.767 158.862 118.708 158.467 119.63 158.017L119.192 157.119C118.304 157.552 117.398 157.932 116.474 158.257L116.806 159.2ZM122.303 156.534C123.157 156.001 123.994 155.422 124.813 154.8L124.209 154.003C123.412 154.608 122.601 155.17 121.774 155.686L122.303 156.534ZM127.161 152.86C127.907 152.194 128.639 151.491 129.356 150.756L128.641 150.058C127.938 150.778 127.223 151.464 126.495 152.115L127.161 152.86ZM131.411 148.519C132.065 147.764 132.708 146.982 133.339 146.175L132.551 145.559C131.93 146.353 131.298 147.123 130.655 147.864L131.411 148.519ZM135.154 143.742C135.734 142.929 136.305 142.094 136.866 141.241L136.03 140.692C135.476 141.535 134.913 142.359 134.34 143.162L135.154 143.742ZM138.482 138.692C139.002 137.84 139.515 136.973 140.019 136.092L139.151 135.595C138.651 136.468 138.144 137.327 137.628 138.17L138.482 138.692ZM141.486 133.449C141.961 132.567 142.429 131.674 142.89 130.771L141.999 130.316C141.542 131.213 141.077 132.099 140.606 132.974L141.486 133.449ZM144.235 128.07C144.672 127.169 145.103 126.261 145.528 125.346L144.621 124.925C144.199 125.834 143.77 126.738 143.335 127.633L144.235 128.07ZM146.778 122.6C147.187 121.683 147.59 120.761 147.987 119.836L147.069 119.441C146.673 120.362 146.271 121.28 145.864 122.192L146.778 122.6ZM149.161 117.06C149.547 116.131 149.928 115.201 150.304 114.27L149.377 113.896C149.002 114.823 148.622 115.751 148.237 116.676L149.161 117.06ZM151.42 111.471C151.789 110.534 152.153 109.599 152.513 108.666L151.58 108.306C151.221 109.237 150.858 110.17 150.49 111.104L151.42 111.471ZM153.588 105.853C153.946 104.907 154.3 103.966 154.649 103.031L153.712 102.681C153.363 103.615 153.01 104.555 152.652 105.499L153.588 105.853ZM155.699 100.208C156.051 99.2596 156.398 98.319 156.742 97.3885L155.804 97.0421C155.46 97.9726 155.113 98.9127 154.762 99.8607L155.699 100.208ZM157.781 94.5748C158.135 93.6192 158.485 92.6767 158.831 91.7493L157.894 91.3997C157.547 92.3283 157.197 93.2717 156.844 94.2278L157.781 94.5748ZM159.891 88.9301C160.253 87.9734 160.613 87.0366 160.969 86.1219L160.037 85.7592C159.679 86.6771 159.319 87.6167 158.956 88.5754L159.891 88.9301ZM162.075 83.3288C162.262 82.8657 162.448 82.4098 162.634 81.9613L161.71 81.579C161.523 82.0302 161.336 82.4887 161.148 82.9542L162.075 83.3288ZM162.634 81.9613C162.821 81.5086 163.01 81.0523 163.201 80.5928L162.277 80.2091C162.086 80.6694 161.897 81.1264 161.71 81.579L162.634 81.9613ZM164.357 77.8512C164.743 76.9516 165.142 76.0466 165.556 75.1412L164.647 74.725C164.229 75.639 163.827 76.5513 163.438 77.4562L164.357 77.8512ZM166.831 72.4702C167.269 71.5916 167.726 70.718 168.205 69.8539L167.331 69.3688C166.844 70.2471 166.38 71.1338 165.936 72.0237L166.831 72.4702ZM169.704 67.3126C170.225 66.4826 170.772 65.6669 171.347 64.8701L170.536 64.2846C169.947 65.1003 169.389 65.9341 168.857 66.7808L169.704 67.3126ZM173.153 62.5533C173.781 61.8086 174.44 61.0867 175.135 60.3922L174.428 59.6852C173.712 60.4008 173.034 61.1436 172.388 61.9087L173.153 62.5533ZM177.298 58.4181C178.042 57.8013 178.821 57.2141 179.64 56.6606L179.08 55.8321C178.233 56.4045 177.428 57.0115 176.66 57.6486L177.298 58.4181ZM182.146 55.1436C182.987 54.6904 183.865 54.27 184.783 53.8858L184.397 52.9633C183.449 53.3602 182.541 53.7947 181.671 54.2633L182.146 55.1436ZM187.533 52.8851C188.441 52.6011 189.385 52.3498 190.367 52.1337L190.152 51.1571C189.143 51.3792 188.171 51.6379 187.235 51.9306L187.533 52.8851ZM193.263 51.6166C194.206 51.4853 195.181 51.3842 196.189 51.3152L196.121 50.3176C195.09 50.3881 194.092 50.4915 193.125 50.6261L193.263 51.6166ZM199.117 51.2075C200.068 51.2013 201.046 51.2218 202.052 51.2703L202.101 50.2715C201.077 50.2221 200.08 50.2012 199.11 50.2075L199.117 51.2075ZM204.999 51.4858C205.962 51.5793 206.949 51.6971 207.962 51.8401L208.102 50.8499C207.075 50.705 206.074 50.5855 205.095 50.4905L204.999 51.4858ZM210.849 52.3047C211.795 52.4751 212.762 52.6663 213.749 52.879L213.96 51.9014C212.962 51.6864 211.984 51.493 211.026 51.3206L210.849 52.3047ZM216.662 53.5548C217.588 53.7844 218.53 54.0319 219.49 54.298L219.758 53.3343C218.789 53.0659 217.837 52.816 216.903 52.5843L216.662 53.5548ZM222.37 55.1357C223.286 55.4144 224.216 55.7092 225.163 56.0205L225.475 55.0705C224.522 54.757 223.584 54.46 222.661 54.1791L222.37 55.1357ZM227.996 56.9858C228.903 57.3052 229.823 57.6391 230.757 57.9878L231.107 57.051C230.167 56.7001 229.241 56.3641 228.328 56.0426L227.996 56.9858ZM233.559 59.0625C234.453 59.4141 235.359 59.7788 236.277 60.1569L236.658 59.2323C235.735 58.8522 234.824 58.4855 233.926 58.132L233.559 59.0625ZM239.067 61.3308C239.945 61.7078 240.833 62.0965 241.733 62.4973L242.14 61.5838C241.236 61.1813 240.344 60.7908 239.462 60.412L239.067 61.3308ZM244.464 63.7357C245.345 64.1419 246.237 64.5594 247.138 64.9881L247.568 64.085C246.663 63.6546 245.768 63.2355 244.883 62.8276L244.464 63.7357ZM249.805 66.2746C250.697 66.711 251.599 67.1582 252.511 67.6163L252.96 66.7227C252.045 66.2631 251.14 65.8143 250.245 65.3764L249.805 66.2746ZM255.11 68.9383C255.986 69.3888 256.87 69.849 257.763 70.3192L258.229 69.4343C257.333 68.9627 256.446 68.501 255.568 68.0491L255.11 68.9383ZM260.399 71.7216C261.251 72.1796 262.11 72.6464 262.978 73.1222L263.459 72.2453C262.589 71.7683 261.727 71.3002 260.872 70.8409L260.399 71.7216ZM265.606 74.5762C266.047 74.823 266.491 75.0721 266.937 75.3235L267.428 74.4523C266.981 74.2004 266.536 73.9506 266.093 73.7032L265.606 74.5762ZM266.937 75.3235C267.393 75.5802 267.847 75.8327 268.301 76.0812L268.781 75.2042C268.331 74.9577 267.88 74.7071 267.428 74.4523L266.937 75.3235ZM271.009 77.5228C271.908 77.9872 272.802 78.4353 273.693 78.8676L274.13 77.968C273.247 77.5394 272.359 77.0949 271.468 76.6344L271.009 77.5228ZM276.461 80.1662C277.399 80.591 278.332 80.9982 279.26 81.3881L279.647 80.4661C278.728 80.0798 277.803 79.6763 276.873 79.2553L276.461 80.1662ZM282.031 82.5061C283.003 82.8821 283.97 83.2391 284.931 83.5775L285.263 82.6342C284.312 82.2993 283.355 81.9458 282.392 81.5734L282.031 82.5061ZM287.804 84.5391C288.779 84.8484 289.749 85.1385 290.712 85.4097L290.983 84.4471C290.03 84.1789 289.071 83.8919 288.107 83.5859L287.804 84.5391ZM293.674 86.1892C294.656 86.4297 295.632 86.6505 296.602 86.8522L296.806 85.8732C295.848 85.6739 294.883 85.4556 293.912 85.2179L293.674 86.1892ZM299.634 87.4244C300.637 87.5943 301.634 87.7436 302.623 87.8729L302.752 86.8813C301.776 86.7537 300.792 86.6062 299.801 86.4384L299.634 87.4244ZM305.668 88.21C306.686 88.3023 307.697 88.3732 308.699 88.4234L308.749 87.4246C307.76 87.3751 306.763 87.3052 305.758 87.2141L305.668 88.21ZM311.748 88.5127C312.773 88.5213 313.789 88.5081 314.796 88.4738L314.762 87.4744C313.769 87.5082 312.767 87.5212 311.757 87.5127L311.748 88.5127ZM317.837 88.3045C318.859 88.2253 319.871 88.1243 320.873 88.0021L320.752 87.0095C319.765 87.1299 318.767 87.2295 317.759 87.3075L317.837 88.3045ZM323.887 87.5668C324.898 87.3979 325.897 87.2075 326.886 86.9964L326.677 86.0185C325.703 86.2265 324.718 86.4141 323.723 86.5805L323.887 87.5668ZM329.851 86.2932C330.84 86.035 331.818 85.7559 332.784 85.4569L332.488 84.5017C331.536 84.7962 330.573 85.0712 329.598 85.3256L329.851 86.2932ZM335.676 84.4901C336.637 84.1451 337.585 83.7802 338.52 83.3966L338.141 82.4714C337.219 82.8495 336.285 83.209 335.338 83.549L335.676 84.4901ZM341.318 82.1763C342.243 81.7486 343.154 81.3024 344.053 80.8388L343.594 79.9502C342.708 80.4073 341.81 80.8471 340.898 81.2687L341.318 82.1763ZM346.736 79.3797C347.619 78.8748 348.488 78.353 349.343 77.8153L348.811 76.9688C347.968 77.4991 347.11 78.0137 346.24 78.5116L346.736 79.3797ZM351.896 76.1348C352.735 75.5577 353.558 74.9654 354.367 74.3589L353.767 73.5589C352.969 74.1574 352.156 74.7418 351.329 75.3111L351.896 76.1348ZM356.772 72.479C357.562 71.8356 358.337 71.1787 359.095 70.5095L358.434 69.7595C357.685 70.4201 356.92 71.0685 356.14 71.7036L356.772 72.479ZM361.342 68.4501C362.08 67.746 362.803 67.0304 363.509 66.3044L362.792 65.6073C362.095 66.3243 361.381 67.031 360.652 67.7262L361.342 68.4501ZM365.587 64.0847C366.272 63.325 366.939 62.5557 367.589 61.7781L366.822 61.1367C366.18 61.9048 365.521 62.6647 364.844 63.4151L365.587 64.0847ZM369.495 59.4101C370.122 58.6012 370.731 57.7849 371.32 56.9625L370.507 56.3798C369.925 57.1922 369.324 57.9985 368.705 58.7976L369.495 59.4101ZM373.049 54.4534C373.613 53.6024 374.156 52.7465 374.68 51.8871L373.826 51.3668C373.309 52.2155 372.772 53.0608 372.216 53.9014L373.049 54.4534ZM376.221 49.2459C376.719 48.3533 377.195 47.4585 377.65 46.563L376.758 46.1103C376.309 46.9941 375.839 47.8774 375.347 48.7587L376.221 49.2459ZM378.976 43.8142C379.405 42.8777 379.81 41.9421 380.19 41.0091L379.264 40.6317C378.889 41.5514 378.49 42.4741 378.067 43.398L378.976 43.8142ZM381.275 38.1717C381.622 37.198 381.942 36.2291 382.234 35.2673L381.278 34.9764C380.99 35.9228 380.675 36.8765 380.333 37.8356L381.275 38.1717ZM383.051 32.315C383.3 31.3111 383.518 30.3173 383.704 29.336L382.721 29.15C382.539 30.1121 382.325 31.0876 382.08 32.0738L383.051 32.315ZM384.177 26.3308C384.307 25.2888 384.399 24.2646 384.45 23.2614L383.451 23.2102C383.401 24.1879 383.312 25.1878 383.185 26.207L384.177 26.3308ZM384.481 20.1838C384.445 19.13 384.361 18.1056 384.226 17.1151L383.235 17.2499C383.365 18.2047 383.447 19.1952 383.481 20.2175L384.481 20.1838ZM383.628 14.087C383.356 13.0604 383.019 12.0819 382.616 11.1582L381.699 11.5584C382.081 12.4319 382.401 13.3619 382.661 14.3431L383.628 14.087ZM381.117 8.43011C380.823 7.99854 380.509 7.58514 380.175 7.19103L379.412 7.83765C379.723 8.2044 380.016 8.58991 380.291 8.99338L381.117 8.43011ZM380.175 7.19103C379.82 6.77205 379.459 6.37462 379.095 5.99822L378.377 6.6943C378.725 7.05421 379.071 7.4351 379.412 7.83765L380.175 7.19103ZM376.707 3.87904C375.82 3.21099 374.911 2.64965 373.984 2.18832L373.539 3.08363C374.409 3.51675 375.266 4.04542 376.105 4.67771L376.707 3.87904ZM370.973 1.04964C369.929 0.771583 368.87 0.60355 367.802 0.535355L367.738 1.53333C368.744 1.59752 369.738 1.75549 370.716 2.01595L370.973 1.04964ZM364.598 0.616901C363.555 0.732166 362.506 0.930544 361.458 1.20257L361.709 2.17054C362.715 1.90948 363.716 1.72041 364.708 1.61086L364.598 0.616901ZM358.438 2.18203C357.469 2.55694 356.503 2.98756 355.542 3.46672L355.988 4.36169C356.924 3.89514 357.862 3.47734 358.799 3.11459L358.438 2.18203ZM352.769 4.98694C351.878 5.51925 350.993 6.08867 350.116 6.68943L350.682 7.51417C351.542 6.92433 352.41 6.36632 353.282 5.84555L352.769 4.98694ZM347.568 8.54139C346.74 9.1762 345.922 9.83527 345.117 10.5135L345.762 11.2783C346.556 10.6093 347.361 9.95983 348.176 9.33491L347.568 8.54139ZM342.756 12.5878C341.981 13.2961 341.22 14.0185 340.476 14.75L341.177 15.463C341.913 14.7396 342.665 14.0256 343.43 13.3259L342.756 12.5878ZM338.275 16.9891C337.545 17.7559 336.836 18.5272 336.148 19.2975L336.894 19.9634C337.575 19.2007 338.277 18.4372 338.999 17.6783L338.275 16.9891ZM334.094 21.6709C333.404 22.4931 332.743 23.3078 332.112 24.1081L332.898 24.7267C333.522 23.9344 334.177 23.1278 334.86 22.3137L334.094 21.6709ZM330.214 26.6017C329.897 27.0325 329.592 27.4564 329.298 27.8724L330.114 28.4498C330.405 28.0389 330.707 27.6199 331.02 27.194L330.214 26.6017Z" fill="#1A093F"/>
<path d="M184.346 45.6998C183.722 45.0289 183.066 44.5099 182.378 44.1428C181.69 43.7631 181.053 43.4909 180.467 43.3264C179.881 43.1492 179.39 43.0479 178.995 43.0226C178.6 42.9846 178.377 42.9656 178.326 42.9656C177.689 42.9656 177.173 43.0479 176.778 43.2125C176.383 43.3644 176.071 43.5669 175.842 43.82C175.625 44.0606 175.473 44.339 175.383 44.6555C175.307 44.9593 175.269 45.2694 175.269 45.5859C175.269 45.8897 175.301 46.2061 175.364 46.5352C175.441 46.8644 175.562 47.1682 175.727 47.4466C175.893 47.7125 176.116 47.934 176.396 48.1112C176.676 48.2884 177.033 48.377 177.466 48.377C177.492 48.377 177.594 48.377 177.772 48.377C177.951 48.3644 178.173 48.3137 178.441 48.2251C178.709 48.1238 179.002 47.9593 179.32 47.7314C179.651 47.4909 179.983 47.1492 180.314 46.7061V54.434C180.046 53.953 179.753 53.5732 179.435 53.2947C179.116 53.0163 178.811 52.8137 178.517 52.6871C178.237 52.5479 177.982 52.4656 177.753 52.4403C177.536 52.4023 177.39 52.3833 177.314 52.3833C176.893 52.3833 176.543 52.453 176.262 52.5922C175.995 52.7314 175.778 52.9276 175.613 53.1808C175.46 53.4213 175.351 53.7188 175.288 54.0732C175.224 54.415 175.192 54.7947 175.192 55.2125C175.23 56.1871 175.326 57.1935 175.479 58.2314C175.543 58.6745 175.625 59.1428 175.727 59.6365C175.829 60.1302 175.957 60.6428 176.11 61.1745C176.262 61.6935 176.441 62.2188 176.645 62.7504C176.848 63.2694 177.084 63.7821 177.352 64.2884C177.071 64.2757 176.766 64.2568 176.434 64.2314C176.141 64.2061 175.797 64.1871 175.402 64.1745C175.02 64.1618 174.587 64.1555 174.103 64.1555C173.53 64.1555 172.905 64.1745 172.23 64.2125C171.555 64.2378 170.867 64.2884 170.166 64.3644C169.465 64.4403 168.758 64.5416 168.045 64.6681C167.331 64.8074 166.65 64.9783 166 65.1808C166.28 64.6112 166.522 63.8897 166.726 63.0163C166.93 62.1428 167.096 61.2125 167.223 60.2251C167.363 59.2378 167.472 58.2314 167.548 57.2061C167.624 56.1808 167.682 55.2314 167.72 54.358C167.758 53.4719 167.777 52.7061 167.777 52.0606C167.79 51.4023 167.796 50.953 167.796 50.7125C167.796 50.6618 167.79 50.4656 167.777 50.1238C167.777 49.7821 167.771 49.339 167.758 48.7947C167.745 48.2504 167.726 47.6302 167.701 46.934C167.675 46.2251 167.637 45.4909 167.586 44.7314C167.548 43.9719 167.491 43.2061 167.414 42.434C167.35 41.6618 167.268 40.934 167.166 40.2504C167.077 39.5542 166.968 38.934 166.841 38.3897C166.726 37.8327 166.586 37.3897 166.42 37.0606C167.644 37.3137 168.886 37.4973 170.147 37.6112C171.421 37.7125 172.676 37.7631 173.912 37.7631C175.326 37.7631 176.664 37.7188 177.925 37.6302C179.186 37.5289 180.295 37.415 181.25 37.2884C182.371 37.1492 183.403 36.9846 184.346 36.7947V45.6998Z" fill="#1A093F"/>
<path d="M194.418 64.5163C194.201 64.5036 193.946 64.4846 193.653 64.4593C193.398 64.4466 193.093 64.434 192.736 64.4213C192.392 64.4087 191.997 64.4023 191.551 64.4023C190.723 64.4023 189.767 64.4403 188.684 64.5163C187.614 64.5795 186.448 64.7061 185.187 64.896C185.365 64.5416 185.525 64.0542 185.665 63.434C185.805 62.8011 185.926 62.0922 186.028 61.3074C186.13 60.5099 186.213 59.6681 186.276 58.7821C186.353 57.8833 186.41 56.9846 186.448 56.0859C186.499 55.1871 186.531 54.32 186.544 53.4846C186.569 52.6365 186.589 51.877 186.601 51.2061C186.614 50.5226 186.62 49.9466 186.62 49.4783C186.62 49.0099 186.62 48.7061 186.62 48.5669C186.595 46.453 186.538 44.4909 186.448 42.6808C186.41 41.9213 186.366 41.1555 186.315 40.3833C186.264 39.6112 186.2 38.8897 186.124 38.2188C186.047 37.5479 185.958 36.9593 185.856 36.453C185.767 35.9466 185.659 35.5669 185.531 35.3137C186.563 35.4909 187.519 35.6112 188.398 35.6745C189.277 35.7378 190.067 35.7694 190.767 35.7694C191.226 35.7694 191.64 35.7631 192.01 35.7504C192.379 35.7251 192.691 35.6998 192.946 35.6745C193.252 35.6492 193.519 35.6175 193.749 35.5795C193.634 36.1492 193.526 36.8707 193.424 37.7441C193.335 38.6175 193.252 39.5985 193.175 40.6871C193.112 41.7757 193.061 42.9466 193.022 44.1998C192.984 45.453 192.965 46.7441 192.965 48.0732C192.965 49.5922 192.991 51.1238 193.042 52.6681C193.093 54.2125 193.175 55.7061 193.29 57.1492C193.405 58.5922 193.551 59.9466 193.73 61.2125C193.921 62.4656 194.15 63.5669 194.418 64.5163Z" fill="#1A093F"/>
<path d="M214.637 42.7757C214.497 43.3074 214.375 43.9466 214.274 44.6935C214.184 45.4403 214.102 46.2441 214.025 47.1049C213.949 47.9656 213.885 48.8644 213.834 49.8011C213.796 50.7378 213.758 51.6492 213.719 52.5352C213.643 54.6238 213.598 56.8264 213.586 59.1428C213.586 60.434 213.503 61.7061 213.337 62.9593C213.184 64.2125 212.929 65.396 212.573 66.5099C212.229 67.6365 211.776 68.6745 211.216 69.6238C210.668 70.5859 209.993 71.4087 209.19 72.0922C208.4 72.7884 207.477 73.3327 206.419 73.7251C205.374 74.1175 204.189 74.3137 202.864 74.3137C201.629 74.3137 200.558 74.1871 199.654 73.934C198.749 73.6808 197.998 73.32 197.399 72.8517C196.813 72.396 196.373 71.8454 196.08 71.1998C195.8 70.5542 195.66 69.8454 195.66 69.0732C195.66 68.3011 195.794 67.5985 196.061 66.9656C196.329 66.3454 196.679 65.82 197.112 65.3897C197.545 64.9593 198.036 64.6302 198.584 64.4023C199.132 64.1618 199.686 64.0416 200.246 64.0416C200.96 64.0416 201.635 64.2441 202.272 64.6492C202.909 65.0542 203.393 65.6935 203.724 66.5669C203.648 66.5036 203.559 66.4593 203.457 66.434C203.368 66.4213 203.272 66.415 203.17 66.415C203.03 66.415 202.884 66.4466 202.731 66.5099C202.591 66.5732 202.463 66.6618 202.348 66.7757C202.234 66.8897 202.138 67.0163 202.062 67.1555C201.998 67.3074 201.966 67.4656 201.966 67.6302C201.966 67.82 202.004 67.9783 202.081 68.1049C202.157 68.2441 202.247 68.3517 202.348 68.4276C202.463 68.5036 202.584 68.5542 202.712 68.5795C202.852 68.6175 202.979 68.6365 203.094 68.6365C203.272 68.6365 203.495 68.5985 203.763 68.5226C204.03 68.4466 204.304 68.2884 204.584 68.0479C204.877 67.8074 205.164 67.4719 205.444 67.0416C205.737 66.6112 205.992 66.0352 206.209 65.3137C206.438 64.6049 206.617 63.7378 206.744 62.7125C206.884 61.6871 206.948 60.4593 206.935 59.0289C206.604 59.915 206.253 60.6365 205.884 61.1935C205.527 61.7378 205.145 62.1618 204.737 62.4656C204.342 62.7694 203.922 62.9719 203.476 63.0732C203.043 63.1745 202.578 63.2251 202.081 63.2251C201.457 63.2251 200.801 63.1175 200.113 62.9023C199.437 62.6745 198.813 62.2821 198.24 61.7251C197.679 61.1555 197.214 60.3833 196.845 59.4087C196.475 58.434 196.29 57.1935 196.29 55.6871C196.29 55.4846 196.29 55.3454 196.29 55.2694C196.303 55.1808 196.31 55.1175 196.31 55.0795C196.31 55.0289 196.316 54.9719 196.329 54.9087C196.341 54.8454 196.348 54.7251 196.348 54.5479C196.348 54.358 196.348 54.0922 196.348 53.7504C196.36 53.4087 196.367 52.9276 196.367 52.3074C196.367 51.5859 196.354 50.7694 196.329 49.858C196.303 48.9466 196.246 48.0542 196.157 47.1808C196.08 46.3074 195.966 45.5163 195.813 44.8074C195.66 44.0859 195.462 43.5542 195.22 43.2125C196.252 43.3897 197.22 43.5099 198.125 43.5732C199.042 43.6365 199.877 43.6682 200.629 43.6682C201.125 43.6682 201.571 43.6618 201.966 43.6492C202.374 43.6238 202.724 43.5985 203.017 43.5732C203.349 43.5479 203.648 43.5163 203.916 43.4783C203.814 43.6935 203.699 44.1049 203.572 44.7125C203.457 45.32 203.342 46.0479 203.228 46.896C203.113 47.7441 203.017 48.6745 202.941 49.6871C202.864 50.6871 202.826 51.6998 202.826 52.7251C202.826 53.4973 202.884 54.1555 202.998 54.6998C203.113 55.2441 203.266 55.6935 203.457 56.0479C203.661 56.3897 203.89 56.6428 204.145 56.8074C204.412 56.9719 204.699 57.0542 205.005 57.0542C205.489 57.0542 205.871 56.858 206.152 56.4656C206.445 56.0732 206.693 55.5795 206.897 54.9846C206.871 54.1998 206.827 53.2821 206.763 52.2314C206.699 51.1808 206.61 50.0859 206.496 48.9466C206.394 47.8074 206.253 46.6618 206.075 45.5099C205.909 44.3454 205.699 43.2631 205.444 42.2631C205.839 42.4023 206.311 42.5289 206.859 42.6428C207.33 42.7441 207.903 42.8327 208.579 42.9087C209.254 42.9719 210.05 43.0036 210.967 43.0036C212.05 43.0036 213.273 42.9276 214.637 42.7757Z" fill="#1A093F"/>
<path d="M232.601 36.8707C232.167 39.2757 231.874 41.5416 231.722 43.6682C231.581 45.7821 231.511 47.82 231.511 49.7821C232.174 48.3264 232.824 46.82 233.461 45.2631C234.11 43.6935 234.747 42.0606 235.372 40.3644C236.021 42.2378 236.671 43.9783 237.321 45.5859C237.971 47.1935 238.678 48.7314 239.442 50.1998V48.453C239.442 46.4783 239.347 44.5352 239.156 42.6238C238.977 40.7125 238.671 38.896 238.238 37.1745C238.289 37.2125 238.442 37.2631 238.697 37.3264C238.952 37.377 239.283 37.4276 239.691 37.4783C240.111 37.5163 240.595 37.5542 241.143 37.5922C241.691 37.6302 242.29 37.6492 242.94 37.6492C243.933 37.6492 245.003 37.5922 246.15 37.4783C247.31 37.3644 248.469 37.1618 249.628 36.8707C249.348 37.4276 249.08 38.1808 248.826 39.1302C248.571 40.0669 248.329 41.1365 248.099 42.339C247.883 43.5416 247.685 44.8517 247.507 46.2694C247.329 47.6871 247.176 49.1555 247.048 50.6745C246.921 52.1808 246.819 53.7061 246.743 55.2504C246.679 56.7947 246.647 58.3011 246.647 59.7694C246.647 60.7061 246.66 61.6112 246.685 62.4846C246.723 63.3454 246.774 64.1745 246.838 64.9719C245.564 64.7568 244.43 64.6112 243.436 64.5352C242.443 64.4466 241.57 64.4023 240.818 64.4023C240.334 64.4023 239.907 64.415 239.538 64.4403C239.168 64.4656 238.856 64.4909 238.601 64.5163C238.308 64.5542 238.054 64.5922 237.837 64.6302C237.684 63.5036 237.525 62.4023 237.359 61.3264C237.194 60.2504 237.002 59.2251 236.786 58.2504C236.569 57.2631 236.321 56.339 236.041 55.4783C235.76 54.6049 235.423 53.8074 235.028 53.0859C234.735 53.9087 234.48 54.7568 234.263 55.6302C234.059 56.5036 233.887 57.4276 233.747 58.4023C233.607 59.377 233.505 60.4087 233.442 61.4973C233.378 62.5859 233.346 63.7441 233.346 64.9719C232.072 64.7568 230.925 64.6112 229.906 64.5352C228.9 64.4466 228.033 64.4023 227.307 64.4023C226.81 64.4023 226.377 64.415 226.007 64.4403C225.638 64.4656 225.326 64.4909 225.071 64.5163C224.778 64.5542 224.536 64.5922 224.345 64.6302C224.421 63.2251 224.46 61.7504 224.46 60.2061C224.46 58.7631 224.428 57.2947 224.364 55.8011C224.3 54.3074 224.205 52.8327 224.077 51.377C223.95 49.9087 223.791 48.4783 223.6 47.0859C223.421 45.6935 223.211 44.3897 222.969 43.1745C222.74 41.9466 222.472 40.8264 222.166 39.8137C221.873 38.7884 221.555 37.9087 221.211 37.1745C221.58 37.2757 222.013 37.358 222.51 37.4213C222.931 37.4846 223.434 37.5416 224.02 37.5922C224.619 37.6302 225.288 37.6492 226.027 37.6492C226.944 37.6492 227.957 37.5922 229.065 37.4783C230.186 37.3644 231.365 37.1618 232.601 36.8707Z" fill="#1A093F"/>
<path d="M268.357 53.5036C268.357 54.2378 268.299 55.0479 268.185 55.934C268.07 56.8074 267.879 57.6935 267.611 58.5922C267.344 59.4783 266.981 60.3454 266.522 61.1935C266.063 62.0289 265.49 62.7694 264.802 63.415C264.127 64.0606 263.318 64.5795 262.375 64.9719C261.432 65.3644 260.337 65.5606 259.088 65.5606C257.839 65.5606 256.744 65.377 255.801 65.0099C254.871 64.6428 254.068 64.1555 253.393 63.5479C252.731 62.9276 252.183 62.2188 251.75 61.4213C251.316 60.6112 250.972 59.7631 250.718 58.877C250.463 57.9909 250.284 57.0985 250.182 56.1998C250.093 55.2884 250.049 54.4276 250.049 53.6175C250.049 52.1871 250.24 50.7884 250.622 49.4213C251.004 48.0416 251.584 46.8137 252.361 45.7378C253.151 44.6618 254.132 43.7947 255.304 43.1365C256.489 42.4783 257.878 42.1492 259.47 42.1492C260.54 42.1492 261.502 42.3137 262.356 42.6428C263.21 42.9593 263.968 43.396 264.63 43.953C265.293 44.5099 265.853 45.1618 266.312 45.9087C266.783 46.6555 267.172 47.4466 267.478 48.2821C267.783 49.1175 268.006 49.9846 268.147 50.8833C268.287 51.7821 268.357 52.6555 268.357 53.5036ZM261.706 54.1302C261.706 53.839 261.693 53.4783 261.668 53.0479C261.655 52.6049 261.617 52.1428 261.553 51.6618C261.49 51.1808 261.4 50.6998 261.286 50.2188C261.184 49.7378 261.044 49.3074 260.865 48.9276C260.687 48.5479 260.464 48.2378 260.196 47.9973C259.942 47.7568 259.636 47.6365 259.279 47.6365C258.935 47.6365 258.636 47.7504 258.381 47.9783C258.126 48.2061 257.903 48.5036 257.712 48.8707C257.534 49.2378 257.381 49.6555 257.253 50.1238C257.139 50.5795 257.043 51.0416 256.967 51.5099C256.903 51.9656 256.852 52.4087 256.814 52.839C256.788 53.2568 256.776 53.6112 256.776 53.9023C256.776 54.32 256.808 54.8264 256.871 55.4213C256.935 56.0163 257.056 56.5859 257.234 57.1302C257.413 57.6745 257.655 58.1428 257.961 58.5352C258.279 58.915 258.693 59.1049 259.203 59.1049C259.687 59.1049 260.088 58.9276 260.407 58.5732C260.738 58.2188 260.999 57.7884 261.19 57.2821C261.381 56.7631 261.515 56.2188 261.592 55.6492C261.668 55.0795 261.706 54.5732 261.706 54.1302Z" fill="#1A093F"/>
<path d="M280.263 47.3707C279.868 47.3707 279.511 47.4846 279.192 47.7125C278.874 47.9276 278.587 48.2378 278.332 48.6428C278.09 49.0352 277.874 49.5099 277.683 50.0669C277.504 50.6238 277.358 51.2378 277.243 51.9087C277.243 52.9846 277.269 54.0732 277.32 55.1745C277.371 56.2757 277.453 57.3644 277.568 58.4403C277.683 59.5163 277.829 60.5669 278.008 61.5922C278.199 62.6175 278.428 63.5922 278.696 64.5163C278.492 64.5036 278.256 64.4846 277.989 64.4593C277.759 64.4466 277.479 64.434 277.148 64.4213C276.829 64.4087 276.46 64.4023 276.039 64.4023C275.249 64.4023 274.332 64.4403 273.287 64.5163C272.255 64.5795 271.109 64.7061 269.847 64.896C270 64.1871 270.134 63.32 270.249 62.2947C270.363 61.2694 270.459 60.1555 270.535 58.953C270.612 57.7504 270.669 56.4973 270.707 55.1935C270.758 53.877 270.784 52.5795 270.784 51.3011C270.784 50.3517 270.771 49.4213 270.746 48.5099C270.72 47.5985 270.682 46.7378 270.631 45.9276C270.593 45.1175 270.535 44.3707 270.459 43.6871C270.382 43.0036 270.293 42.415 270.191 41.9213C271.223 42.0985 272.16 42.2251 273.001 42.3011C273.854 42.3644 274.619 42.396 275.294 42.396C275.727 42.396 276.109 42.3897 276.441 42.377C276.772 42.3517 277.058 42.3264 277.301 42.3011C277.568 42.2631 277.81 42.2251 278.027 42.1871C277.874 42.82 277.759 43.5226 277.683 44.2947C278.345 43.4973 279.065 42.9087 279.842 42.5289C280.632 42.1492 281.371 41.9593 282.059 41.9593C283.206 41.9593 284.174 42.1682 284.964 42.5859C285.754 42.9909 286.391 43.5289 286.875 44.1998C287.359 44.858 287.709 45.6112 287.926 46.4593C288.143 47.3074 288.251 48.1682 288.251 49.0416C288.251 49.8897 288.13 50.7188 287.888 51.5289C287.646 52.339 287.295 53.0669 286.837 53.7125C286.378 54.3454 285.811 54.858 285.136 55.2504C284.461 55.6428 283.696 55.839 282.843 55.839C282.091 55.839 281.448 55.7125 280.912 55.4593C280.39 55.2061 279.957 54.877 279.613 54.4719C279.269 54.0669 279.014 53.6238 278.848 53.1428C278.696 52.6492 278.619 52.1618 278.619 51.6808C278.619 51.1745 278.689 50.6808 278.829 50.1998C278.982 49.7188 279.199 49.2821 279.479 48.8897C279.568 49.1681 279.677 49.3833 279.804 49.5352C279.944 49.6745 280.084 49.7757 280.224 49.839C280.377 49.915 280.543 49.9593 280.721 49.9719C281.193 49.9719 281.543 49.8644 281.772 49.6492C282.014 49.434 282.136 49.1808 282.136 48.8897C282.136 48.7504 282.11 48.5922 282.059 48.415C282.008 48.2378 281.913 48.0732 281.772 47.9213C281.645 47.7694 281.46 47.6428 281.218 47.5416C280.976 47.4276 280.658 47.3707 280.263 47.3707Z" fill="#1A093F"/>
<path d="M297.997 64.5163C297.781 64.5036 297.526 64.4846 297.233 64.4593C296.978 64.4466 296.672 64.434 296.316 64.4213C295.972 64.4087 295.577 64.4023 295.131 64.4023C294.303 64.4023 293.347 64.4403 292.264 64.5163C291.194 64.5795 290.028 64.7061 288.767 64.896C288.945 64.5416 289.105 64.0542 289.245 63.434C289.385 62.8011 289.506 62.0922 289.608 61.3074C289.71 60.5099 289.793 59.6681 289.856 58.7821C289.933 57.8833 289.99 56.9846 290.028 56.0859C290.079 55.1871 290.111 54.32 290.124 53.4846C290.149 52.6365 290.168 51.877 290.181 51.2061C290.194 50.5226 290.2 49.9466 290.2 49.4783C290.2 49.0099 290.2 48.7061 290.2 48.5669C290.175 46.453 290.117 44.4909 290.028 42.6808C289.99 41.9213 289.945 41.1555 289.894 40.3833C289.843 39.6112 289.78 38.8897 289.703 38.2188C289.627 37.5479 289.538 36.9593 289.436 36.453C289.347 35.9466 289.238 35.5669 289.111 35.3137C290.143 35.4909 291.098 35.6112 291.978 35.6745C292.857 35.7378 293.647 35.7694 294.347 35.7694C294.806 35.7694 295.22 35.7631 295.589 35.7504C295.959 35.7251 296.271 35.6998 296.526 35.6745C296.832 35.6492 297.099 35.6175 297.329 35.5795C297.214 36.1492 297.106 36.8707 297.004 37.7441C296.914 38.6175 296.832 39.5985 296.755 40.6871C296.691 41.7757 296.641 42.9466 296.602 44.1998C296.564 45.453 296.545 46.7441 296.545 48.0732C296.545 49.5922 296.57 51.1238 296.621 52.6681C296.672 54.2125 296.755 55.7061 296.87 57.1492C296.985 58.5922 297.131 59.9466 297.309 61.2125C297.501 62.4656 297.73 63.5669 297.997 64.5163Z" fill="#1A093F"/>
<path d="M319 64.858C318.707 64.8327 318.376 64.8074 318.006 64.7821C317.688 64.7568 317.312 64.7378 316.879 64.7251C316.458 64.7125 315.993 64.7061 315.484 64.7061C314.757 64.7061 313.987 64.7314 313.171 64.7821C312.356 64.8327 311.547 64.9276 310.744 65.0669C310.821 64.915 310.903 64.5985 310.993 64.1175C311.082 63.6365 311.165 63.1049 311.241 62.5226C311.33 61.9403 311.407 61.3644 311.47 60.7947C311.547 60.2251 311.604 59.7821 311.642 59.4656C311.439 60.415 311.152 61.2821 310.782 62.0669C310.426 62.839 310.005 63.5036 309.521 64.0606C309.037 64.6049 308.495 65.0289 307.897 65.3327C307.298 65.6365 306.667 65.7884 306.005 65.7884C305.699 65.7884 305.323 65.7694 304.877 65.7314C304.431 65.6935 303.954 65.5669 303.444 65.3517C302.947 65.1365 302.444 64.8074 301.934 64.3644C301.437 63.9087 300.985 63.2757 300.577 62.4656C300.182 61.6428 299.857 60.6049 299.603 59.3517C299.361 58.0985 299.24 56.5669 299.24 54.7568C299.24 53.2378 299.348 51.8833 299.564 50.6935C299.794 49.4909 300.093 48.434 300.463 47.5226C300.845 46.6112 301.284 45.839 301.781 45.2061C302.291 44.5606 302.82 44.0352 303.367 43.6302C303.928 43.2251 304.495 42.934 305.068 42.7568C305.654 42.5669 306.215 42.4719 306.75 42.4719C307.349 42.4719 307.89 42.5732 308.374 42.7757C308.859 42.9656 309.298 43.2188 309.693 43.5352C310.088 43.839 310.432 44.1935 310.725 44.5985C311.018 44.9909 311.273 45.3833 311.49 45.7757C311.464 45.1935 311.439 44.5606 311.413 43.877C311.388 43.1935 311.356 42.5036 311.318 41.8074C311.279 41.1112 311.228 40.4276 311.165 39.7568C311.114 39.0732 311.05 38.4403 310.974 37.858C310.91 37.2757 310.833 36.7631 310.744 36.32C310.655 35.877 310.553 35.5416 310.438 35.3137C311.458 35.4909 312.407 35.6112 313.286 35.6745C314.165 35.7378 314.961 35.7694 315.675 35.7694C316.133 35.7694 316.547 35.7631 316.917 35.7504C317.286 35.7251 317.599 35.6998 317.853 35.6745C318.159 35.6492 318.427 35.6175 318.656 35.5795C318.516 36.2125 318.388 37.0416 318.274 38.0669C318.159 39.0795 318.057 40.2251 317.968 41.5036C317.892 42.7821 317.828 44.1555 317.777 45.6238C317.739 47.0795 317.72 48.5669 317.72 50.0859C317.72 51.4909 317.739 52.8897 317.777 54.2821C317.828 55.6745 317.904 57.0163 318.006 58.3074C318.108 59.5859 318.242 60.7884 318.408 61.915C318.573 63.0289 318.771 64.0099 319 64.858ZM311.146 53.9783V50.9023C311.146 50.5606 311.126 50.2125 311.088 49.858C311.05 49.5036 310.961 49.1808 310.821 48.8897C310.693 48.5985 310.502 48.3644 310.247 48.1871C309.993 47.9973 309.649 47.9023 309.215 47.9023C308.91 47.9023 308.648 48.0226 308.432 48.2631C308.215 48.5036 308.037 48.8137 307.897 49.1935C307.757 49.5732 307.642 49.9973 307.553 50.4656C307.464 50.934 307.4 51.4023 307.362 51.8707C307.323 52.3264 307.298 52.7568 307.285 53.1618C307.272 53.5542 307.266 53.8644 307.266 54.0922C307.266 54.434 307.279 54.858 307.304 55.3644C307.342 55.858 307.419 56.339 307.534 56.8074C307.648 57.2631 307.82 57.6555 308.05 57.9846C308.292 58.3137 308.617 58.4783 309.024 58.4783C309.483 58.4783 309.852 58.32 310.133 58.0036C310.413 57.6871 310.623 57.2947 310.763 56.8264C310.916 56.358 311.018 55.8707 311.069 55.3644C311.12 54.8454 311.146 54.3833 311.146 53.9783Z" fill="#1A093F"/>
<path d="M314.548 27.1288L312.25 29.3677L320.292 32.7259L323.74 40.5634L326.038 38.3246L324.889 32.7259L330.273 27.4803L336.139 39.6783L338.315 37.5583L336.381 21.5302L340.977 17.0509C341.287 16.7588 341.535 16.4094 341.705 16.023C341.875 15.6367 341.965 15.2212 341.969 14.8007C341.973 14.3802 341.89 13.9632 341.727 13.5741C341.564 13.1849 341.322 12.8313 341.017 12.534C340.712 12.2367 340.349 12.0015 339.95 11.8423C339.55 11.6831 339.122 11.603 338.691 11.6066C338.259 11.6103 337.833 11.6976 337.436 11.8636C337.04 12.0296 336.681 12.2708 336.381 12.5733L331.664 17.1697L315.214 15.2839L313.158 17.2884L325.58 23.0993L320.294 28.2498L314.548 27.1288Z" fill="#FD5056"/>
</svg>
