<svg width="17" height="14" viewBox="0 0 17 14" fill="none" xmlns="http://www.w3.org/2000/svg">
<path d="M14.5439 3.76844C14.5542 3.90893 14.5542 4.05021 14.5542 4.19069C14.5629 5.40685 14.3297 6.6126 13.8684 7.73789C13.407 8.86317 12.7266 9.88554 11.8667 10.7456C11.0068 11.6056 9.98453 12.2862 8.85933 12.7478C7.73412 13.2093 6.52841 13.4427 5.31225 13.4342C3.5438 13.4383 1.81182 12.9314 0.324585 11.9746C0.584967 12.0034 0.846809 12.0169 1.10877 12.0151C2.57072 12.0187 3.9913 11.53 5.1416 10.6277C4.46388 10.6152 3.80695 10.3915 3.26254 9.98767C2.71813 9.58384 2.3134 9.02009 2.10487 8.37513C2.30784 8.40716 2.51293 8.42387 2.71841 8.42513C3.00685 8.42439 3.29406 8.38732 3.57324 8.31481C2.83756 8.16609 2.17607 7.76722 1.70119 7.18599C1.22631 6.60476 0.967338 5.87703 0.968283 5.12648V5.086C1.41844 5.33709 1.92157 5.47824 2.43664 5.49793C1.74752 5.03795 1.25981 4.33243 1.07294 3.52524C0.886079 2.71805 1.01414 1.86998 1.43102 1.15396C2.24681 2.15826 3.2646 2.97987 4.41837 3.56551C5.57213 4.15114 6.83611 4.48772 8.12833 4.55342C8.07654 4.30861 8.04995 4.05914 8.04896 3.80892C8.05115 3.15819 8.24838 2.52307 8.61519 1.98556C8.98199 1.44806 9.50151 1.03287 10.1067 0.793618C10.7118 0.55436 11.3748 0.502024 12.01 0.643368C12.6452 0.784711 13.2234 1.11324 13.67 1.58653C14.3981 1.44675 15.0964 1.1814 15.7336 0.802349C15.4913 1.55302 14.9833 2.18943 14.305 2.59216C14.9501 2.51895 15.5807 2.3496 16.1757 2.08975C15.7311 2.73716 15.1805 3.30495 14.5471 3.76923L14.5439 3.76844Z" fill="white"/>
</svg>
