<svg width="21" height="21" viewBox="0 0 21 21" fill="none" xmlns="http://www.w3.org/2000/svg">
<g clip-path="url(#clip0_96_125)">
<path d="M20.8648 12.1821C21.7938 6.45796 17.9065 1.06449 12.1824 0.13549C6.45818 -0.793509 1.06471 3.09376 0.135713 8.81794C-0.793285 14.5421 3.09398 19.9356 8.81816 20.8646C14.5423 21.7936 19.9358 17.9063 20.8648 12.1821Z" fill="#5AB1C7"/>
<path d="M17.1093 4.89631C17.2198 4.95157 17.3193 5.01789 17.4298 5.07315C17.5514 5.12841 17.5293 5.07315 17.5182 5.05105C17.5293 5.0621 17.5403 5.07315 17.5403 5.0842C17.5403 5.0621 17.5403 5.05105 17.5735 5.03999V5.02894C17.5624 4.96262 17.5624 4.96262 17.6067 4.90736C17.5956 4.95157 17.6177 4.99578 17.6067 5.03999C17.5956 5.03999 17.5956 5.03999 17.5846 5.05105C17.5956 5.11736 17.5956 5.11736 17.5956 5.13947C17.5846 5.13947 17.5846 5.13947 17.5735 5.13947C17.6067 5.18368 17.6619 5.19473 17.6951 5.22789C17.6951 5.24999 17.673 5.38262 17.5182 5.44894C17.7061 5.60368 17.8388 5.86894 18.0377 6.24473C18.0267 6.21157 18.0267 6.21157 18.0267 6.20052C18.0267 6.20052 18.2035 6.44368 18.2035 6.57631C18.2035 6.57631 18.2035 6.57631 18.1924 6.58736C18.1372 6.5542 18.1482 6.47684 18.104 6.44368C18.104 6.44368 18.104 6.45473 18.093 6.45473C18.093 6.47684 18.1151 6.49894 18.1151 6.52105C18.104 6.50999 18.104 6.50999 18.0819 6.50999C18.0819 6.54315 18.1151 6.57631 18.093 6.62052C18.0709 6.62052 18.0267 6.57631 18.0488 6.5542C18.0488 6.5542 18.0377 6.54315 18.0267 6.54315C18.0156 6.5542 18.0046 6.56526 18.0377 6.63157C18.0156 6.63157 18.0156 6.62052 17.9824 6.63157C17.9493 6.63157 17.9493 6.63157 17.9272 6.62052C17.9272 6.64262 17.9382 6.69789 17.9272 6.7642C17.9051 6.85262 17.8609 6.78631 17.8498 6.7642C17.8388 6.7421 17.8277 6.73105 17.8056 6.69789C17.8056 6.71999 17.8167 6.7421 17.8167 6.7642C17.8167 6.7642 17.8167 6.77526 17.8167 6.78631C17.8277 6.83052 17.8277 6.86368 17.8388 6.90789C17.8056 6.87473 17.7835 6.87473 17.7724 6.88578C17.7614 6.89684 17.7614 6.91894 17.7614 6.94105C17.7614 6.98526 17.7614 6.99631 17.7503 7.01841C17.684 6.9521 17.6398 6.90789 17.5624 6.88578C17.6177 6.88578 17.6509 6.84157 17.684 6.7642C17.7172 6.69789 17.7282 6.66473 17.7614 6.64262C17.684 6.54315 17.4298 6.64262 17.3967 6.73105C17.4188 6.7421 17.4298 6.7421 17.4519 6.7642C17.5735 6.86368 17.6509 7.06262 17.6619 7.13999C17.684 7.23947 17.6398 7.22841 17.6288 7.21736C17.5293 7.13999 17.4851 7.02947 17.4188 6.94105C17.4188 6.94105 17.4188 6.94105 17.4077 6.94105C17.4077 6.94105 17.4077 6.9521 17.4077 6.9742C17.3967 6.94105 17.3856 6.92999 17.3524 6.89684C17.3082 6.85262 17.2972 6.83052 17.3193 6.7642C17.3414 6.68684 17.4851 6.29999 17.7393 6.44368C17.5956 6.15631 17.6619 6.15631 17.6951 6.15631C17.7724 6.15631 17.7724 5.80262 17.4851 5.53736C17.5182 5.55947 17.5624 5.58157 17.5956 5.60368C17.5735 5.58157 17.5735 5.58157 17.5182 5.5042C17.5182 5.5042 17.5182 5.5042 17.5182 5.51526C17.5072 5.52631 17.5072 5.52631 17.463 5.51526C17.463 5.51526 17.1646 5.36052 17.3303 5.2721C17.3082 5.26105 17.2861 5.24999 17.2751 5.22789C17.2198 5.13947 17.1977 5.05105 17.1424 4.96262C17.1314 4.91841 17.1203 4.90736 17.1093 4.89631ZM6.36613 1.43684C6.39929 1.43684 6.43245 1.41473 6.50982 1.38157C6.60929 1.33736 6.62034 1.32631 6.6314 1.33736C6.6314 1.34841 6.6314 1.37052 6.55403 1.40368C6.56508 1.41473 6.58719 1.41473 6.6535 1.40368C6.69771 1.39262 6.70876 1.39262 6.73087 1.39262C6.74192 1.35947 6.74192 1.35947 6.73087 1.33736C6.70876 1.31526 6.68666 1.31526 6.66455 1.29315C6.70876 1.29315 6.78613 1.29315 6.91876 1.25999C7.02929 1.23789 6.99613 1.18262 6.99613 1.18262C6.98508 1.17157 6.95192 1.17157 6.94087 1.17157C6.83034 1.18262 6.73087 1.21578 6.69771 1.22684C6.68666 1.22684 6.66455 1.22684 6.6535 1.23789C6.64245 1.23789 6.64245 1.24894 6.64245 1.24894C6.6535 1.24894 6.6535 1.24894 6.67561 1.25999C6.66455 1.25999 6.66455 1.27105 6.6535 1.27105C6.62034 1.25999 6.59824 1.27105 6.55403 1.3042C6.55403 1.2821 6.53192 1.27105 6.54297 1.25999C6.53192 1.27105 6.48771 1.2821 6.45455 1.27105H6.4435C6.4214 1.2821 6.4214 1.3042 6.39929 1.31526C6.39929 1.3042 6.39929 1.3042 6.39929 1.3042C6.38824 1.3042 6.36613 1.33736 6.36613 1.34841C6.37718 1.35947 6.37718 1.34841 6.38824 1.32631C6.43245 1.33736 6.47666 1.31526 6.52087 1.33736C6.32192 1.41473 6.32192 1.41473 6.32192 1.42578C6.31087 1.42578 6.36613 1.43684 6.36613 1.43684ZM3.85719 2.37631C3.9235 2.3321 4.19982 2.1442 4.21087 2.1442L4.19982 2.15526C4.23297 2.15526 4.24403 2.15526 4.33245 2.09999C4.42087 2.04473 4.5535 2.04473 4.61982 1.9342C4.59771 1.9342 4.57561 1.94526 4.54245 1.95631C4.58666 1.9342 4.63087 1.90105 4.68613 1.87894C4.66403 1.90105 4.64192 1.9121 4.63087 1.9342C4.66403 1.9342 4.7635 1.86789 4.77455 1.85684C4.7635 1.85684 4.75245 1.86789 4.7414 1.86789C4.77455 1.84578 4.79666 1.83473 4.82982 1.81262C4.81876 1.81262 4.80771 1.82368 4.79666 1.82368C4.79666 1.82368 4.79666 1.82368 4.91824 1.7021C4.92929 1.7021 4.96245 1.71315 4.98455 1.66894V1.67999C5.02876 1.69105 5.05087 1.64684 5.08403 1.63578C5.06192 1.63578 5.06192 1.63578 5.02876 1.65789C5.10613 1.60262 5.11719 1.60262 5.17245 1.59157C5.24982 1.56947 5.30508 1.4921 5.38245 1.45894H5.3714V1.44789C5.41561 1.41473 5.48192 1.42578 5.52613 1.39262H5.51508C5.53719 1.38157 5.54824 1.38157 5.57034 1.37052C5.55929 1.37052 5.55929 1.37052 5.51508 1.38157C5.69192 1.29315 5.87982 1.24894 6.05666 1.17157C6.06771 1.17157 6.08982 1.16052 6.10087 1.14947C6.03455 1.12736 6.03455 1.12736 5.8135 1.21578C5.87982 1.11631 6.05666 1.20473 6.10087 1.04999C6.08982 1.04999 6.07876 1.03894 6.06771 1.03894C6.0235 1.04999 5.95718 1.06105 5.92403 1.0721H5.91297H5.90192C5.90192 1.0721 5.91297 1.0721 5.91297 1.06105C5.83561 1.08315 5.83561 1.08315 5.75824 1.12736C5.76929 1.11631 5.76929 1.11631 5.80245 1.0942C5.78034 1.10526 5.75824 1.11631 5.74719 1.12736C5.74719 1.12736 5.75824 1.12736 5.75824 1.11631C5.74718 1.11631 5.73613 1.12736 5.72508 1.12736C5.73613 1.12736 5.74718 1.11631 5.75824 1.10526C5.73613 1.11631 5.70297 1.12736 5.66982 1.14947C5.1835 1.40368 4.73034 1.67999 4.29929 2.00052C4.05613 2.17736 3.81297 2.36526 3.59192 2.5642C3.6914 2.47578 3.89034 2.30999 3.94561 2.27684C3.9235 2.3321 3.89034 2.3542 3.85719 2.37631ZM17.1203 4.78578C17.0872 4.74157 17.0651 4.70841 16.9214 4.58683C16.7998 4.47631 16.7777 4.4542 16.7667 4.42105V4.40999C16.7888 4.40999 16.7998 4.39894 16.8661 4.42105C16.844 4.36578 16.833 4.33262 16.7556 4.26631C16.634 4.16684 16.4793 4.12262 16.3577 4.0342C16.2251 3.93473 16.1367 3.81315 16.004 3.71368C15.9598 3.68052 15.9046 3.64736 15.8493 3.64736C15.8382 3.64736 15.8272 3.64736 15.8161 3.65841C15.8493 3.70262 15.9156 3.72473 15.9488 3.76894C16.1367 3.89052 16.5677 4.34368 16.7667 4.55368C16.9435 4.74157 16.9877 4.78578 17.0319 4.80789C16.9988 4.76368 16.9767 4.73052 16.9546 4.68631C16.9656 4.68631 16.9656 4.68631 17.0209 4.71947C17.0651 4.76368 17.1093 4.78578 17.1203 4.78578ZM7.64824 1.86789C7.64824 1.87894 7.64824 1.87894 7.6814 1.88999C7.6814 1.88999 7.69245 1.87894 7.69245 1.86789L7.6814 1.85684L7.69245 1.84578C7.75876 1.94526 7.83613 1.96736 7.93561 1.90105C7.9135 1.85684 7.86929 1.81262 7.84719 1.75736C7.9135 1.73526 7.97982 1.67999 8.00192 1.62473C8.03508 1.64684 8.07929 1.61368 8.18982 1.55841C8.30034 1.4921 8.43297 1.50315 8.55455 1.46999C8.56561 1.46999 8.58771 1.45894 8.59876 1.44789C8.5214 1.43684 8.44403 1.43684 8.36666 1.43684C8.32245 1.43684 8.30034 1.43684 8.25613 1.44789C8.23403 1.45894 8.21192 1.48105 8.18982 1.48105C8.1014 1.5142 8.01298 1.52526 7.93561 1.55841C7.94666 1.58052 7.94666 1.58052 7.88034 1.61368C7.88034 1.61368 7.61508 1.77947 7.61508 1.81262C7.63719 1.82368 7.65929 1.82368 7.6814 1.83473C7.65929 1.85684 7.65929 1.85684 7.64824 1.86789ZM3.14982 3.77999C3.07245 3.83526 3.07245 3.83526 2.92876 3.98999C2.92876 3.98999 2.91771 4.0342 2.95087 4.0342C2.97297 4.0342 3.00613 4.0121 3.02824 4.00105C3.01719 4.0121 3.00613 4.02315 2.99508 4.02315C3.16087 3.94578 3.19403 3.97894 3.20508 4.02315C3.22719 3.95684 3.2935 3.93473 3.33771 3.87947C3.39297 3.81315 3.33771 3.8242 3.31561 3.8242C3.30455 3.8242 3.30455 3.8242 3.2935 3.8242C3.32666 3.79105 3.37087 3.73578 3.35982 3.71368C3.40403 3.72473 3.45929 3.44841 3.45929 3.43736L3.44824 3.42631C3.53666 3.3821 3.6914 3.26052 3.6914 3.20526C3.68034 3.1942 3.65824 3.20526 3.58087 3.23841C3.7135 3.13894 3.7135 3.13894 3.74666 3.10578C3.73561 3.11684 3.72455 3.12789 3.7135 3.13894C3.60297 3.22736 3.51455 3.24947 3.49245 3.24947C3.49245 3.23841 3.5035 3.22736 3.51455 3.21631C3.55876 3.18315 3.59192 3.16105 3.61403 3.12789C3.59192 3.12789 3.58087 3.13894 3.54771 3.1721C3.49245 3.21631 3.49245 3.21631 3.49245 3.22736C3.45929 3.26052 3.43719 3.29368 3.42613 3.29368C3.44824 3.27157 3.47034 3.24947 3.49245 3.22736C3.5035 3.22736 3.5035 3.22736 3.5035 3.22736C3.45929 3.27157 3.43719 3.30473 3.43719 3.30473C3.44824 3.30473 3.44824 3.30473 3.45929 3.28262C3.47034 3.28262 3.47034 3.28262 3.49245 3.26052C3.49245 3.26052 3.33771 3.39315 3.32666 3.4042C3.32666 3.4042 3.41508 3.34894 3.44824 3.32684C3.42613 3.34894 3.42613 3.34894 3.35982 3.4042C3.35982 3.4042 3.37087 3.39315 3.38192 3.39315C3.31561 3.43736 3.31561 3.43736 3.28245 3.48157C3.30455 3.47052 3.31561 3.45947 3.32666 3.44841C3.31561 3.45947 3.2935 3.48157 3.28245 3.51473C3.2935 3.51473 3.30455 3.51473 3.38192 3.43736C3.31561 3.50368 3.30455 3.51473 3.30455 3.54789C3.31561 3.55894 3.31561 3.55894 3.34876 3.55894C3.31561 3.58105 3.2714 3.63631 3.26034 3.65841H3.2714C3.23824 3.72473 3.21613 3.73578 3.14982 3.77999ZM17.6509 4.68631C17.6509 4.67526 17.6398 4.6642 17.6288 4.63105C17.6288 4.6421 17.6288 4.65315 17.6288 4.6642H17.6177C17.6288 4.67526 17.6509 4.69736 17.6509 4.68631ZM4.28824 2.29894C4.26613 2.30999 4.24403 2.29894 4.21087 2.29894C4.17771 2.30999 4.15561 2.3321 4.12245 2.36526C4.14455 2.34315 4.15561 2.3321 4.15561 2.3321C4.14455 2.32105 4.08929 2.3542 4.01192 2.40947C4.1335 2.30999 4.14455 2.28789 4.15561 2.27684C4.1335 2.28789 4.1114 2.30999 4.07824 2.34315C4.08929 2.32105 4.08929 2.32105 4.08929 2.32105C4.08929 2.32105 4.07824 2.32105 4.02297 2.37631C4.02297 2.37631 4.01192 2.37631 3.97876 2.39841C3.97876 2.39841 3.97876 2.39841 3.98982 2.39841V2.40947C3.98982 2.40947 3.97876 2.42052 3.96771 2.42052V2.43157C3.96771 2.43157 3.87929 2.46473 3.87929 2.48684C3.87929 2.48684 3.87929 2.48684 3.89034 2.48684C3.75771 2.58631 3.81297 2.59736 3.81297 2.59736C3.83508 2.60841 3.93455 2.57526 4.02297 2.51999C4.04508 2.50894 4.06719 2.49789 4.07824 2.47578C4.1114 2.45368 4.1335 2.42052 4.16666 2.40947C4.17771 2.39841 4.18876 2.37631 4.28824 2.29894ZM17.0872 6.56526C17.0872 6.5542 17.0872 6.5542 17.0872 6.56526C17.0872 6.5542 17.0872 6.5542 17.0872 6.56526ZM3.53666 2.64157C3.54771 2.63052 3.56982 2.61947 3.59192 2.59736C3.56982 2.61947 3.54771 2.63052 3.53666 2.64157ZM9.5935 1.24894C9.62666 1.23789 9.67087 1.22684 9.73719 1.22684C9.69298 1.22684 9.68192 1.24894 9.67087 1.25999C9.74824 1.2821 9.8035 1.32631 9.88087 1.34841C9.94719 1.35947 9.98034 1.33736 10.0024 1.32631C10.0024 1.32631 10.0135 1.31526 10.0356 1.29315C10.0356 1.29315 10.0356 1.29315 10.0135 1.2821C9.9914 1.27105 9.9914 1.25999 10.0135 1.24894C9.93613 1.24894 9.90298 1.23789 9.85876 1.21578C9.81455 1.19368 9.77034 1.18262 9.68192 1.18262C9.64876 1.18262 9.62666 1.18262 9.60455 1.18262C9.60455 1.20473 9.61561 1.22684 9.5714 1.21578C9.60455 1.22684 9.61561 1.22684 9.64876 1.22684C9.61561 1.22684 9.5935 1.22684 9.5714 1.22684C9.56034 1.23789 9.58245 1.25999 9.5935 1.24894ZM12.2461 1.53631C12.2351 1.53631 12.2351 1.53631 12.2461 1.53631C12.2572 1.53631 12.2903 1.53631 12.3124 1.54736C12.4009 1.55841 12.4893 1.59157 12.5777 1.59157C12.633 1.60262 12.6772 1.59157 12.6882 1.58052C12.6772 1.55841 12.5335 1.53631 12.5224 1.53631C12.4893 1.53631 12.4451 1.52526 12.4119 1.5142C12.3456 1.5142 12.2903 1.45894 12.224 1.46999C12.2019 1.46999 12.2019 1.48105 12.2019 1.48105C12.213 1.50315 12.2351 1.5142 12.2461 1.53631ZM10.1019 1.37052C10.2124 1.37052 10.2788 1.34841 10.3119 1.32631C10.3119 1.32631 10.323 1.32631 10.323 1.31526C10.2898 1.2821 10.1903 1.24894 10.1351 1.24894C10.0577 1.24894 10.0467 1.33736 10.0688 1.34841C10.0798 1.37052 10.0909 1.37052 10.1019 1.37052ZM13.0198 1.58052C13.0198 1.56947 13.0198 1.56947 13.0198 1.58052C12.9424 1.52526 12.8761 1.50315 12.7988 1.5142C12.7656 1.5142 12.7435 1.52526 12.6993 1.53631C12.7103 1.53631 12.7324 1.54736 12.7767 1.55841C12.8761 1.58052 12.9977 1.62473 13.0198 1.58052ZM17.4851 4.33262C17.4851 4.33262 17.4851 4.32157 17.4851 4.33262C17.474 4.31052 17.4519 4.27736 17.4409 4.27736C17.4409 4.28841 17.463 4.31052 17.463 4.32157C17.463 4.32157 17.474 4.33262 17.4851 4.33262ZM17.5735 4.49841C17.5735 4.48736 17.5624 4.48736 17.5624 4.48736C17.5514 4.50947 17.5735 4.49841 17.5735 4.49841ZM17.6509 4.77473C17.6509 4.77473 17.6398 4.77473 17.6509 4.77473C17.6398 4.76368 17.6398 4.76368 17.6398 4.76368C17.6288 4.76368 17.6288 4.77473 17.6288 4.79684C17.6288 4.79684 17.6288 4.79684 17.6288 4.78578C17.6288 4.78578 17.6288 4.78578 17.6509 4.8521C17.6619 4.8521 17.673 4.82999 17.6509 4.77473ZM17.5956 4.55368C17.5956 4.55368 17.6067 4.55368 17.5956 4.55368C17.6067 4.54262 17.6067 4.54262 17.5956 4.55368C17.5956 4.54262 17.5846 4.53157 17.5846 4.53157L17.5956 4.55368ZM8.01298 1.22684L8.06824 1.23789C8.07929 1.23789 8.1014 1.23789 8.1014 1.23789C8.1014 1.22684 8.1014 1.22684 8.1014 1.22684H8.11245C8.15666 1.24894 8.15666 1.24894 8.25613 1.20473C8.26719 1.23789 8.26719 1.23789 8.43298 1.18262C8.43298 1.18262 8.43297 1.19368 8.42192 1.19368C8.41087 1.20473 8.41087 1.20473 8.41087 1.20473C8.41087 1.20473 8.42192 1.20473 8.44403 1.20473V1.19368C8.44403 1.18262 8.44403 1.18262 8.44403 1.17157C8.42192 1.16052 8.42192 1.16052 8.36666 1.17157C8.37771 1.16052 8.37771 1.16052 8.38876 1.14947C8.35561 1.14947 8.32245 1.16052 8.28929 1.17157C8.28929 1.17157 8.28929 1.18262 8.32245 1.18262C8.30034 1.19368 8.27824 1.19368 8.26719 1.19368C8.25613 1.19368 8.23403 1.19368 8.16771 1.21578V1.22684C8.15666 1.22684 8.14561 1.22684 8.13455 1.22684C8.15666 1.21578 8.16771 1.21578 8.18982 1.20473C8.16771 1.19368 8.14561 1.19368 8.11245 1.19368C8.1235 1.19368 8.15666 1.18262 8.16771 1.18262C8.18982 1.18262 8.23403 1.20473 8.24508 1.18262C8.23403 1.18262 8.21192 1.18262 8.20087 1.17157C8.16771 1.16052 8.15666 1.16052 8.15666 1.16052C8.15666 1.16052 8.15666 1.16052 8.15666 1.18262C8.11245 1.19368 8.06824 1.21578 8.01298 1.20473H8.00192C8.00192 1.21578 8.00192 1.21578 8.00192 1.21578C8.00192 1.21578 8.00192 1.21578 7.97982 1.21578C7.97982 1.21578 7.97982 1.21578 7.97982 1.22684C7.96876 1.22684 7.94666 1.21578 7.9135 1.22684C7.9135 1.23789 7.9135 1.23789 7.9135 1.24894C8.01297 1.22684 8.01298 1.22684 8.01298 1.22684ZM17.5182 4.38789C17.5182 4.37684 17.5072 4.37684 17.5072 4.37684C17.5072 4.37684 17.5072 4.38789 17.5182 4.40999C17.5182 4.40999 17.5182 4.39894 17.5182 4.38789ZM7.65929 1.20473C7.6814 1.20473 7.72561 1.19368 7.76982 1.20473C7.73666 1.20473 7.73666 1.20473 7.73666 1.21578C7.71455 1.21578 7.7035 1.22684 7.69245 1.22684C7.7035 1.24894 7.73666 1.24894 7.80297 1.23789C7.80297 1.23789 7.79192 1.23789 7.78087 1.24894C7.79192 1.24894 7.79192 1.24894 7.80297 1.24894C7.79192 1.25999 7.78087 1.27105 7.81403 1.27105C7.83613 1.27105 7.85824 1.25999 7.86929 1.25999C7.86929 1.25999 7.86929 1.25999 7.88034 1.25999C7.85824 1.24894 7.83613 1.24894 7.81403 1.25999C7.82508 1.25999 7.83613 1.25999 7.83613 1.24894H7.82508C7.84719 1.23789 7.86929 1.23789 7.8914 1.22684C7.8914 1.21578 7.8914 1.18262 7.81403 1.19368C7.75876 1.19368 7.7035 1.21578 7.63719 1.23789C7.64824 1.20473 7.65929 1.20473 7.65929 1.20473ZM16.6451 18.8779C16.6119 18.9 16.5788 18.9221 16.5456 18.9332C16.6451 18.8558 16.6451 18.8558 16.6561 18.8447C16.6451 18.8447 16.634 18.8447 16.623 18.8558C16.4351 18.9553 16.2693 19.0879 16.0703 19.1763C15.794 19.2979 15.794 19.2979 15.7167 19.3421C15.5619 19.4305 15.5509 19.4526 15.5509 19.4637C15.6172 19.4858 16.3909 19.0547 16.6009 18.911C16.6119 18.9 16.634 18.8889 16.6451 18.8779ZM16.5567 18.9553C16.6009 18.9553 17.043 18.6568 17.1867 18.5353C17.1867 18.5353 17.1867 18.5353 17.1977 18.5242C17.1646 18.5353 17.1424 18.5684 17.1093 18.5795C17.1203 18.5684 17.1203 18.5684 17.2972 18.4026C17.264 18.4247 17.2419 18.4468 17.2088 18.4689C17.2198 18.4579 17.2309 18.4468 17.2419 18.4358C17.0761 18.5905 16.5567 18.9553 16.5567 18.9553ZM17.5293 18.1816C17.4409 18.2589 17.3635 18.3363 17.2751 18.4137C17.2861 18.4026 17.2972 18.4026 17.3082 18.3916L17.2972 18.4026C17.3856 18.3253 17.463 18.2479 17.5514 18.1705C17.5403 18.1705 17.5403 18.1705 17.5293 18.1816ZM2.78508 4.0121C2.80719 4.00105 2.95087 3.93473 3.17192 3.66947C3.19403 3.63631 3.26034 3.55894 3.21613 3.55894H3.20508C3.11666 3.5921 3.0614 3.65841 2.97297 3.69157C2.96192 3.73578 2.93982 3.74683 2.90666 3.76894C2.91771 3.79105 2.89561 3.8242 2.81824 3.90157C2.78508 3.94578 2.6635 4.06736 2.78508 4.0121ZM15.8935 18.3032C15.8935 18.3032 15.8935 18.3142 15.8935 18.3032C15.8935 18.3142 15.8935 18.3032 15.8935 18.3032ZM18.0488 16.9989C18.0488 16.9879 18.0598 16.9879 18.0598 16.9768C18.0598 16.9879 18.0598 16.9879 18.0488 16.9989ZM17.2972 18.4026C17.2861 18.4137 17.264 18.4358 17.253 18.4468C17.2751 18.4247 17.2861 18.4137 17.2972 18.4026ZM15.7167 18.8889C15.6946 18.8889 15.6614 18.8889 15.6393 18.8889C15.6172 18.8889 15.5619 18.8889 15.4735 18.9553C15.374 19.0216 15.2856 19.11 15.1861 19.1874C15.3077 19.1653 15.3188 19.1542 15.4514 19.0658C15.584 18.9774 15.6835 18.9 15.7167 18.8889C15.7056 18.8889 15.7167 18.8889 15.7167 18.8889ZM6.79718 7.85841C6.83034 7.85841 6.8414 7.85841 6.8414 7.85841C6.8414 7.85841 6.83034 7.84736 6.81929 7.84736C6.80824 7.84736 6.79718 7.84736 6.79718 7.85841ZM2.76297 5.55947C2.76297 5.58157 2.75192 5.59262 2.74087 5.64789C2.70771 5.74736 2.65245 5.9242 2.69666 5.89105C2.74087 5.85789 2.81824 5.72526 2.86245 5.63684C2.90666 5.52631 2.88455 5.53736 2.8735 5.53736C2.86245 5.53736 2.8514 5.53736 2.80719 5.57052C2.76297 5.59262 2.76297 5.59262 2.76297 5.55947ZM2.8514 5.5042C2.86245 5.4821 2.91771 5.41578 2.96192 5.31631C2.98403 5.28315 2.99508 5.24999 2.99508 5.23894H2.98403C2.91771 5.28315 2.86245 5.40473 2.86245 5.40473C2.84034 5.45999 2.84034 5.4821 2.8514 5.5042ZM17.2419 10.9532C17.2419 10.8758 17.2198 10.8316 17.2088 10.7984C17.2088 10.7984 17.2088 10.8095 17.1977 10.8095C17.1756 10.8537 17.1535 10.92 17.1646 10.9421C17.1756 10.9421 17.1756 10.9421 17.1977 10.9089C17.1093 11.0526 17.0098 11.2074 16.9988 11.2184L16.9877 11.2405C16.9546 11.2847 16.9435 11.3179 16.9214 11.3842C17.043 11.3179 17.2309 11.13 17.2419 10.9532ZM17.8388 12.6663C17.8388 12.6442 17.8388 12.6221 17.8388 12.6C17.8167 12.6 17.7946 12.611 17.7835 12.611C17.6288 12.6442 17.474 12.6553 17.3303 12.6884C17.2861 12.6995 17.253 12.7216 17.2419 12.7437C17.2309 12.7658 17.2198 12.7768 17.2198 12.7879C17.1867 12.8653 17.1756 12.9426 17.1424 13.02C17.0982 13.1637 16.9767 13.2853 16.9324 13.4289C16.8882 13.5837 16.9214 13.7384 16.8993 13.8821C16.9546 13.871 16.9877 13.86 17.0319 13.8821C17.0319 13.8821 17.1203 13.4621 17.1867 13.3958C17.2198 13.44 17.2198 13.451 17.2088 13.5837C17.1867 13.7716 17.2861 13.7384 17.3082 13.7274C17.2972 13.7495 17.2751 13.8047 17.2861 13.8821C17.2861 13.8821 17.2972 13.8821 17.2972 13.8932C17.3524 13.86 17.4077 13.7053 17.4077 13.65C17.3856 13.661 17.3746 13.661 17.3524 13.6832C17.3746 13.5284 17.3082 13.3737 17.3082 13.2189C17.4077 13.3405 17.463 13.0532 17.5735 13.02C17.4519 12.9979 17.3193 13.0753 17.1867 13.0089C17.1314 12.9868 17.1535 12.9426 17.264 12.8763C17.3746 12.7989 17.4409 12.81 17.5846 12.821C17.7061 12.8321 17.7172 12.8321 17.7614 12.7768C17.7503 12.7879 17.7503 12.7989 17.7393 12.7989C17.8277 12.6995 17.8277 12.6995 17.8388 12.6663ZM18.0598 13.4179C18.0046 13.4179 17.9272 13.451 17.9935 13.5063C18.0046 13.5174 18.0156 13.5174 18.0156 13.5284C18.0156 13.5284 18.0156 13.5284 18.0267 13.5284C18.1261 13.5837 18.2256 13.5837 18.2477 13.5395C18.2698 13.5063 18.2367 13.4732 18.2367 13.4732C18.2367 13.4842 18.2477 13.4953 18.2588 13.5063C18.1924 13.4289 18.0819 13.4179 18.0598 13.4179ZM17.5624 13.0421C17.5624 13.0421 17.5514 13.0421 17.5624 13.0421C17.5514 13.0421 17.5624 13.0421 17.5624 13.0421ZM17.4961 10.9642C17.5182 11.0195 17.6177 10.931 17.6177 10.931C17.6398 10.92 17.6398 10.8979 17.6509 10.8868C17.6509 10.8647 17.6398 10.8537 17.6177 10.8205C17.5624 10.7542 17.5403 10.7321 17.5293 10.71C17.5293 10.71 17.5182 10.71 17.5182 10.6989C17.5182 10.71 17.5182 10.721 17.5072 10.7542C17.4961 10.8205 17.4851 10.931 17.4961 10.9642ZM17.1867 14.3463L17.2309 14.3574V14.3684C17.2198 14.3684 17.1977 14.3795 17.1756 14.3795C17.1867 14.3905 17.1867 14.3905 17.2198 14.4016C17.253 14.3905 17.2861 14.3795 17.3193 14.3684C17.3193 14.3684 17.3193 14.3795 17.3082 14.3905C17.3193 14.3905 17.3414 14.3905 17.3524 14.3795C17.3635 14.3684 17.3635 14.3574 17.3746 14.3463H17.3856C17.3856 14.3463 17.3856 14.3463 17.3746 14.3463C17.3635 14.3463 17.3414 14.3574 17.3303 14.3463C17.2972 14.3463 17.2751 14.3574 17.264 14.3574C17.2309 14.291 17.1756 14.3353 17.1867 14.3463C17.0872 14.3132 16.9214 14.3242 16.844 14.3353C16.7888 14.3463 16.7446 14.3795 16.6893 14.3905C16.6451 14.4016 16.6119 14.3795 16.5788 14.3795C16.5898 14.3905 16.5898 14.4016 16.6119 14.4016C16.5788 14.4237 16.5677 14.4126 16.5346 14.3684C16.4682 14.3684 16.4461 14.3795 16.4351 14.3795C16.413 14.3242 16.3909 14.3021 16.3688 14.3021C16.3135 14.3242 16.3467 14.3684 16.4019 14.4347C16.4903 14.4568 16.5788 14.4126 16.6672 14.4347C16.6451 14.3684 16.9767 14.4016 16.9877 14.4016V14.4126C17.054 14.4016 17.1203 14.3684 17.1867 14.3463ZM15.5067 14.2579C15.3188 14.2137 15.2082 14.1805 15.0203 14.0921C15.1198 14.0589 15.1861 13.9926 15.2746 13.9484C15.4293 13.9263 15.5177 14.081 15.6614 14.081C15.783 14.081 15.9046 14.0147 16.0372 14.0368C16.0482 14.0368 16.0593 14.0368 16.0703 14.0368C16.1588 14.0589 16.1698 14.0921 16.1809 14.1363C16.1367 14.1695 16.0814 14.1916 16.004 14.1695C16.0372 14.2247 16.0482 14.2358 16.1588 14.2579C16.3356 14.28 16.3135 14.3574 16.3024 14.3684C16.3024 14.3684 16.3024 14.3795 16.2914 14.3795C16.2693 14.4016 16.1588 14.4458 16.1588 14.3353C16.1367 14.4126 15.9819 14.3684 15.5067 14.2579ZM15.5177 14.2579C15.5288 14.2579 15.5398 14.2579 15.5398 14.2579C15.5398 14.2468 15.5067 14.2468 15.5177 14.2579C15.5067 14.2468 15.5067 14.2468 15.5177 14.2579ZM17.6288 14.3353C17.6398 14.3132 17.6177 14.3132 17.5956 14.3242C17.3303 14.3905 17.1535 14.6226 17.1093 14.7C17.1203 14.7 17.1646 14.6779 17.2861 14.6226C17.3967 14.5563 17.6067 14.3905 17.6288 14.3353ZM16.5346 13.5616C16.5346 13.5616 16.634 13.5284 16.5567 13.6279C16.5788 13.6058 16.6119 13.5616 16.623 13.5284C16.6672 13.4289 16.6561 13.3184 16.7003 13.23C16.7556 13.1195 16.8551 13.031 16.9103 12.9095C16.9435 12.8321 16.9435 12.7879 16.9435 12.7326C17.0098 12.821 17.043 12.7658 17.043 12.7437C17.0651 12.6774 17.054 12.5558 16.8993 12.3237C16.9214 12.3347 16.9214 12.3347 16.9324 12.3458C16.9324 12.3458 16.9324 12.3458 16.8772 12.2574C16.8993 12.2574 16.9656 12.2574 16.9546 12.18C16.9546 12.18 16.9546 12.191 16.9656 12.191H16.9767C16.9767 12.18 16.9767 12.1579 16.9656 12.1247C17.0209 12.18 17.054 12.1137 17.054 12.0695C17.054 12.0584 17.043 12.0363 17.043 12.0253C17.0651 12.0032 17.2088 11.8263 17.1314 11.8263C17.0982 11.8263 17.043 11.8484 17.0209 11.8595C17.043 11.8484 17.043 11.8484 17.054 11.8374C17.0319 11.8263 17.0319 11.8263 16.9877 11.8374C17.043 11.7158 16.9546 11.6605 16.9324 11.6605C16.9103 11.6716 16.9103 11.6716 16.8993 11.6826V11.6716C16.8993 11.6716 16.7335 11.6826 16.6782 12.0805C16.6782 12.0474 16.6672 12.0363 16.6451 12.0142C16.6119 12.0695 16.6009 12.1137 16.5898 12.18C16.5346 12.1689 16.5567 12.0916 16.5014 12.0805C16.4351 12.2463 16.1588 12.4784 16.1256 12.4232V12.4121C16.0924 12.5005 16.0703 12.5558 16.0703 12.6553C16.0151 12.611 15.8935 12.6332 15.9046 12.5337C15.8051 12.6332 15.7719 12.6663 15.783 12.8653C15.783 12.8763 15.8714 13.5063 15.9819 13.5063C16.0151 13.5063 16.0482 13.451 16.0593 13.4289C16.0814 13.5395 16.3135 13.5505 16.3798 13.5063C16.3135 13.65 16.4682 13.5947 16.5346 13.5616ZM16.1698 8.76473C16.1698 8.76473 16.1698 8.77578 16.1588 8.77578L16.1698 8.76473ZM17.0098 8.39999C17.054 8.32262 17.0651 8.28947 17.0651 8.25631C17.0651 8.25631 17.0651 8.25631 17.0651 8.24526C17.0761 8.25631 17.0872 8.27841 17.0872 8.32262C17.0872 8.37789 17.0761 8.45526 17.0651 8.52157C17.043 8.64315 17.0319 8.70947 17.054 8.76473C17.0209 8.72052 17.0209 8.72052 16.9877 8.69841C16.9767 8.68736 16.9767 8.68736 16.9767 8.68736C16.9767 8.68736 16.9877 8.68736 16.9877 8.69841C16.8993 8.62105 16.9324 8.53262 17.0098 8.39999ZM16.9877 8.72052L16.9656 8.69841L16.9877 8.72052ZM16.9988 8.72052C16.9877 8.70947 16.9877 8.70947 16.9988 8.72052V8.72052ZM17.0651 8.80894C17.054 8.79789 17.043 8.77578 17.0319 8.76473C17.043 8.78684 17.043 8.79789 17.0651 8.80894ZM15.0424 14.07C15.0314 14.0589 15.0314 14.0589 15.0314 14.0589L15.0424 14.07ZM13.8709 9.86999C13.8598 9.85894 13.8598 9.84789 13.8488 9.83683C13.6719 9.95841 13.6719 9.95841 13.6167 9.8921C13.5393 9.79262 13.5282 9.64894 13.5172 9.58262C13.473 9.2842 13.2298 9.10736 13.0861 8.87526C13.064 8.8421 13.053 8.80894 13.0309 8.77578C13.0198 8.75368 12.9867 8.70947 12.9646 8.68736C12.9424 8.68736 12.9093 8.68736 12.8761 8.69841C12.8651 8.81999 12.8651 8.81999 12.8098 8.87526C12.7988 8.85315 12.7767 8.83105 12.7656 8.79789C12.7546 8.81999 12.7324 8.8421 12.7103 8.85315C12.6882 8.8421 12.6551 8.8421 12.633 8.8421C12.6219 8.85315 12.6109 8.8642 12.6109 8.87526C12.5998 8.8642 12.5888 8.85315 12.5888 8.85315C12.5777 8.8642 12.5667 8.8642 12.5556 8.87526C12.5446 8.85315 12.5224 8.83105 12.5224 8.80894C12.3346 9.25105 11.8261 9.41683 11.6272 9.85894C11.4393 10.2789 11.5609 10.7653 11.3509 11.1853C11.3177 11.2516 11.2846 11.34 11.2182 11.3732C10.9751 11.5168 9.86982 9.52736 10.2235 8.87526C10.2124 8.8642 10.2014 8.85315 10.1903 8.85315C10.1903 8.83105 10.1793 8.79789 10.1682 8.77578C10.1572 8.77578 10.1461 8.76473 10.1351 8.76473C10.1461 8.77578 10.1572 8.79789 10.1572 8.80894C10.1903 8.93052 10.0246 9.0521 9.92508 9.04105C9.74824 9.01894 9.7814 8.80894 9.65982 8.73157C9.7814 8.72052 9.79245 8.67631 9.81455 8.64315C9.70403 8.64315 9.61561 8.6321 9.47192 8.52157C9.25087 8.33368 9.21771 8.22315 9.20666 8.17894C8.80876 7.96894 8.35561 8.32262 7.96876 8.05736C7.93561 8.03526 7.88034 7.99105 7.83613 7.96894C7.64824 7.85841 7.43824 7.97999 7.25034 7.89157C7.01824 7.78105 7.04034 7.43841 6.77508 7.34999C6.76403 7.34999 6.74192 7.34999 6.71982 7.34999C6.71982 7.34999 6.66455 7.41631 6.56508 7.48262C6.6535 7.50473 6.67561 7.52684 6.70876 7.71473L6.99613 8.32262C7.15087 8.49947 7.71455 8.47736 7.74771 8.01315C7.85824 8.12368 7.76982 8.28947 7.85824 8.41105C7.94666 8.53262 8.13455 8.49947 8.21192 8.6321C8.23403 8.67631 8.24508 8.74262 8.23403 8.78684C8.20087 8.94157 7.99087 9.36157 7.39403 9.82578C7.38298 9.83683 6.22245 10.7542 5.95719 10.5L4.99561 7.97999C4.98455 7.94683 4.9735 7.91368 4.96245 7.88052C4.89613 7.69263 4.91824 7.5821 4.92929 7.46052C4.80771 7.61526 4.80771 7.67052 4.81876 7.78105C4.69719 7.62631 4.66403 7.52683 4.65297 7.3721C4.5314 7.5821 4.52034 7.73684 4.7635 8.15684C4.94034 8.47736 4.94034 8.47736 5.21666 9.43894C5.32719 9.84789 5.44876 10.0689 5.64771 10.2237C5.73613 10.301 5.91297 10.4337 5.95719 10.5221C6.0014 10.6437 5.95719 10.6768 5.85771 10.7542C6.34403 10.9421 6.34403 10.9421 6.46561 10.8979C7.10666 10.71 7.10666 10.71 7.10666 10.7432C7.10666 10.7763 7.21719 11.4395 6.20034 12.7105C5.19455 13.9705 5.93508 14.6779 5.94613 14.6779C5.94613 14.6889 5.94613 14.711 5.93508 14.7332C5.95719 14.9763 6.11192 15.1863 6.12297 15.4295C6.14508 15.7389 5.7914 15.7942 5.70297 16.0374C5.59245 16.3468 5.97929 16.5347 5.90192 16.8332C5.87982 16.9437 5.78034 17.01 5.73613 17.0542C5.87982 17.1979 6.0235 17.3305 5.83561 17.8168C5.65876 18.2921 5.23876 18.1705 5.23876 18.1705C5.1614 18.1374 4.18876 17.1095 4.15561 17.0653C3.85718 16.7447 3.21613 15.7832 3.21613 15.7832C3.05034 15.4516 3.09455 15.0647 2.93982 14.7332L2.92876 14.7C2.92876 14.6889 2.55297 14.0589 2.63034 13.9042C2.38719 13.7826 1.88982 13.1858 2.07771 12.8432C1.86771 12.611 2.08876 12.2463 1.81245 12.0363C1.8014 12.0474 1.79034 12.0584 1.77929 12.0695C1.76824 12.0695 1.74613 12.0584 1.73508 12.0584C1.71297 12.0805 1.67982 12.1026 1.65771 12.1026C1.28192 11.7268 1.28192 11.7268 1.1714 11.8042C0.662975 12.18 0.596659 12.0363 0.497185 11.7932C0.497185 11.7932 0.254027 11.0968 0.187712 10.1242C0.165606 9.72631 0.320343 9.35052 0.30929 8.96368C0.30929 8.97473 0.309291 8.99684 0.298238 9.00789C0.353501 8.17894 1.24876 6.71999 1.25982 6.69789C1.39245 6.49894 1.45876 6.42157 1.50297 6.41052C1.55824 6.38841 1.5914 6.43262 1.64666 6.44368C1.69087 6.45473 1.70192 6.44368 1.87876 6.33315C2.0335 6.22262 2.08876 6.20052 2.18824 6.17841C2.23245 6.16736 2.23245 6.16736 2.61929 6.1342C2.70771 6.1342 2.76297 6.1342 2.68561 6.31105C2.63034 6.44368 2.53087 6.5542 2.50876 6.69789C2.55297 6.9742 3.19403 7.48262 3.31561 7.09578C3.37087 6.91894 3.43719 6.87473 3.4814 6.87473C3.5035 6.87473 3.52561 6.87473 3.54771 6.87473C3.74666 6.90789 3.85718 7.09578 4.04508 7.13999C4.23297 7.1842 4.38771 7.04052 4.57561 7.07368C4.58666 7.10683 4.60876 7.13999 4.63087 7.1621C4.89613 7.12894 5.01771 6.88578 5.11719 6.69789C5.29403 6.31105 5.23876 6.23368 5.21666 6.21157C5.21666 6.21157 4.77455 6.22262 4.67508 6.23368C4.48719 6.24473 4.37666 6.21157 4.3435 6.20052C4.35455 6.18947 4.35455 6.17841 4.36561 6.16736C4.3435 6.15631 4.29929 6.15631 4.26613 6.15631C4.27718 6.07894 4.26613 6.00157 4.31034 5.93526C4.18876 5.81368 4.36561 5.6921 4.3435 5.57052C4.26613 5.51526 4.18876 5.49315 4.08929 5.55947C4.08929 5.59262 4.08929 5.62578 4.1114 5.65894C4.08929 5.65894 4.04508 5.65894 4.02297 5.66999C4.02297 5.68105 4.02297 5.70315 4.01192 5.7142C4.00087 5.68105 3.97876 5.64789 3.95666 5.61473C3.9235 5.74736 4.02297 5.86894 4.01192 6.00157C4.00087 5.99052 3.98982 5.97947 3.98982 5.96841C3.98982 5.99052 3.97876 6.02368 3.95666 6.04578C3.93455 6.03473 3.9014 6.02368 3.87929 6.02368C3.89034 6.03473 3.9014 6.04578 3.91245 6.06789C3.89034 6.08999 3.86824 6.1121 3.84613 6.12315C3.84613 6.15631 3.83508 6.20052 3.83508 6.23368C3.82403 6.24473 3.81297 6.25578 3.79087 6.25578C3.61403 6.1342 3.72455 6.00157 3.75771 5.95736C3.72455 5.95736 3.66929 5.94631 3.65824 5.86894C3.63613 5.76947 3.66929 5.61473 3.66929 5.61473C3.70245 5.44894 3.59192 5.32736 3.56982 5.17262C3.55876 5.12841 3.53666 5.0842 3.53666 5.05105C3.53666 5.01789 3.54771 4.96263 3.56982 4.94052C3.55876 4.92947 3.55876 4.90736 3.54771 4.89631C3.53666 4.89631 3.51455 4.90736 3.5035 4.90736C3.49245 4.89631 3.47034 4.89631 3.45929 4.88526C3.32666 4.97368 3.28245 5.01789 3.30455 5.19473C3.31561 5.41578 3.5035 5.52631 3.53666 5.7142C3.47034 5.73631 3.41508 5.6921 3.35982 5.70315C3.35982 5.70315 3.33771 5.94631 3.22719 6.06789C3.13876 6.05684 3.07245 6.14526 2.98403 6.14526C2.90666 6.01262 3.14982 6.02368 3.21613 5.93526C3.40403 5.66999 3.12771 5.18368 3.11666 5.18368C3.01719 5.02894 2.86245 5.18368 2.72982 5.18368C2.72982 5.18368 2.72982 5.18368 2.69666 5.18368C2.69666 5.18368 2.27666 5.51526 2.06666 5.89105C1.92297 6.14526 1.76824 6.28894 1.60245 6.33315C1.54719 6.28894 1.54719 6.21157 1.51403 6.15631C1.50297 6.15631 1.48087 6.16736 1.46982 6.16736C1.55824 5.96841 1.55824 5.96841 1.60245 5.89105L1.5914 5.9021C1.92297 5.19473 1.92297 5.19473 2.21034 5.20578C2.35403 5.21684 2.72982 4.75262 2.58613 4.50947C2.67455 4.4542 2.67455 4.4542 2.80719 4.42105C2.89561 4.21105 3.79087 3.70262 3.80192 3.70262C3.81297 3.71368 3.82403 3.72473 3.83508 3.73578C3.93455 3.62526 3.98982 3.49262 4.08929 3.3821C4.10034 3.37105 4.1335 3.34894 4.14455 3.32684C4.22192 3.26052 4.25508 3.26052 4.29929 3.24947C4.22192 3.32684 4.16666 3.43736 4.07824 3.49262C4.08929 3.49262 4.1114 3.49262 4.12245 3.49262C4.07824 3.56999 4.07824 3.56999 4.01192 3.56999C4.02297 3.55894 4.02297 3.53684 4.03403 3.52578C3.98982 3.60315 3.98982 3.6142 4.01192 3.65841C4.01192 3.65841 4.08929 3.64736 4.19982 3.63631C4.18876 3.64736 4.17771 3.65841 4.16666 3.65841C4.17771 3.66947 4.17771 3.69157 4.18876 3.70262C4.18876 3.70262 4.59771 3.66947 4.68613 3.60315C4.81876 3.41526 4.92929 3.28262 5.01771 3.22736C5.03982 3.23841 5.06192 3.27157 5.08403 3.29368C5.22771 3.27157 5.19455 3.11684 5.27192 3.05052C5.32719 3.00631 5.32719 3.00631 5.73613 2.9842C5.73613 2.97315 5.72508 2.95105 5.72508 2.92894C5.71403 2.91789 5.69192 2.90684 5.68087 2.90684C5.68087 2.89578 5.68087 2.88473 5.66982 2.87368C5.30508 2.93999 5.30508 2.93999 5.23876 2.91789C5.34929 2.7521 5.34929 2.7521 5.76929 2.43157C5.6035 2.30999 5.54824 2.45368 5.53718 2.49789C4.96245 2.71894 4.99561 2.89578 5.00666 2.97315C4.39876 3.50368 4.39876 3.50368 4.24403 3.51473C4.24403 3.50368 4.25508 3.48157 4.26613 3.45947C4.14455 3.58105 4.14455 3.58105 4.1114 3.6142C4.10034 3.6142 4.07824 3.60315 4.06718 3.5921C4.14455 3.55894 4.14455 3.55894 4.15561 3.47052C4.3214 3.50368 4.43192 3.16105 4.47613 3.01736C4.35455 3.11684 4.29929 3.14999 4.19982 3.18315C4.18876 3.1721 4.17771 3.16105 4.16666 3.16105C4.17771 3.11684 4.21087 3.07262 4.21087 3.02841C4.31034 2.92894 4.37666 2.78526 4.50929 2.72999C4.59771 2.68578 4.60876 2.68578 4.68613 2.64157C4.90719 2.53105 5.11719 2.37631 5.32719 2.25473C5.42666 2.18841 5.44876 2.17736 5.47087 2.15526C5.48192 2.1442 5.48192 2.1442 5.49297 2.13315C5.45982 2.1442 5.42666 2.1442 5.3935 2.15526C5.47087 2.11105 5.55929 2.07789 5.64771 2.03368C5.63666 2.04473 5.62561 2.05578 5.61455 2.06684C5.72508 2.05578 5.80245 1.97841 5.89087 1.95631C5.89087 1.96736 5.89087 1.98947 5.89087 2.00052C6.0014 1.96736 6.0014 1.96736 6.01245 1.95631C6.0235 1.95631 6.04561 1.96736 6.05666 1.96736C6.10087 1.9121 6.10087 1.90105 6.20034 1.86789C6.2114 1.87894 6.2335 1.87894 6.24455 1.88999C6.22245 1.90105 6.18929 1.9342 6.15613 1.94526C6.24455 1.90105 6.33297 1.88999 6.37719 1.87894C6.36613 1.88999 6.35508 1.90105 6.34403 1.90105C6.35508 1.90105 6.37719 1.88999 6.39929 1.88999C6.41034 1.90105 6.43245 1.9121 6.4435 1.9121C6.41034 1.92315 6.37719 1.9342 6.34403 1.94526C6.48771 1.95631 6.48771 1.95631 6.49876 1.95631C6.49876 1.96736 6.50982 1.98947 6.50982 2.00052C6.75297 2.05578 6.8414 2.06684 6.8635 2.13315C6.89666 2.21052 6.75297 2.30999 6.68666 2.32105C6.55403 2.34315 6.46561 2.24368 6.34403 2.23262C6.4214 2.5421 6.4214 2.5421 6.49876 2.51999C6.48771 2.49789 6.47666 2.45368 6.46561 2.43157C6.64245 2.43157 6.77508 2.27684 6.95192 2.28789C6.96297 2.29894 6.97403 2.30999 6.98508 2.32105C7.0514 2.17736 7.0514 2.17736 7.06245 2.1221C7.0514 2.11105 7.0514 2.09999 7.04034 2.08894C7.15087 2.03368 7.21719 2.05578 7.21719 2.15526C7.11771 2.15526 7.09561 2.16631 7.08455 2.24368C7.32771 2.26578 7.4935 2.04473 7.72561 2.05578C7.7035 2.07789 7.67034 2.09999 7.64824 2.11105C8.00192 2.08894 8.05719 2.06684 8.1235 2.03368C8.1235 2.02262 8.1235 2.02262 7.99087 1.9342C8.57666 2.11105 8.57666 2.11105 8.59876 2.09999C8.5214 2.02262 8.49929 1.95631 8.51034 1.88999C8.53245 1.79052 8.66508 1.77947 8.68719 1.67999C8.72034 1.67999 8.7535 1.69105 8.77561 1.7021C8.77561 1.7021 8.77561 1.7021 8.78666 1.7021C8.79771 1.7021 8.81982 1.71315 8.83087 1.71315C8.88613 1.84578 8.86403 2.00052 8.93034 2.1221C8.89719 2.22157 8.88613 2.23262 8.76455 2.27684C9.06297 2.25473 9.02982 2.1442 9.01876 2.07789C9.1514 2.01157 9.21771 2.1442 9.31719 2.16631C9.1735 2.04473 8.98561 1.98947 8.88613 1.82368C8.95245 1.77947 8.95245 1.77947 8.97455 1.71315C8.98561 1.7242 8.99666 1.73526 9.00771 1.73526C9.00771 1.76841 9.01876 1.81262 9.01876 1.84578C9.05192 1.85684 9.05192 1.85684 9.20666 1.86789C9.19561 1.84578 9.19561 1.84578 9.07403 1.79052C9.08508 1.79052 9.10719 1.80157 9.11824 1.80157C9.12929 1.79052 9.14034 1.77947 9.1514 1.77947C9.14034 1.76841 9.12929 1.76841 9.11824 1.75736C9.11824 1.75736 9.31719 1.80157 9.44982 1.81262C9.39455 1.73526 9.3614 1.71315 9.25087 1.69105C9.25087 1.69105 9.25087 1.69105 9.27297 1.67999C9.3835 1.64684 9.50508 1.67999 9.61561 1.63578C9.60455 1.63578 9.58245 1.62473 9.5714 1.61368C9.54929 1.4921 9.60455 1.4921 9.86982 1.50315C9.89192 1.48105 9.92508 1.46999 9.94719 1.45894C9.94719 1.45894 10.0246 1.48105 10.2014 1.46999C10.1903 1.45894 10.1793 1.44789 10.1682 1.43684C10.1793 1.43684 10.2014 1.43684 10.2124 1.43684C10.2567 1.38157 10.2567 1.38157 10.323 1.35947C10.8424 1.34841 11.2514 1.73526 11.7709 1.7242C11.7819 1.71315 11.793 1.7021 11.793 1.69105C11.793 1.67999 11.7819 1.65789 11.7819 1.64684C12.0361 1.71315 12.2572 1.90105 12.5446 1.84578C12.5446 1.83473 12.5335 1.81262 12.5335 1.80157C12.6661 1.75736 12.7767 1.82368 12.9093 1.83473C12.9093 1.83473 12.9093 1.83473 12.8761 1.82368C12.8651 1.81262 12.854 1.80157 12.843 1.80157C12.8872 1.80157 12.8872 1.80157 12.9756 1.81262C12.9424 1.80157 12.9093 1.77947 12.8761 1.76841C12.8761 1.75736 12.8651 1.73526 12.8651 1.7242C13.3403 1.67999 13.3735 1.71315 13.4951 1.81262C13.7051 1.98947 13.9593 1.86789 14.1914 1.90105C14.4014 1.92315 14.6003 1.9342 14.8103 1.95631C14.8324 1.95631 14.8656 1.97841 14.8877 1.98947C14.8767 1.98947 14.8546 1.97841 14.8435 1.97841C15.0093 2.04473 15.0424 2.04473 15.1198 2.05578C14.9319 1.97841 14.9319 1.97841 14.9098 1.9342C15.3077 1.9121 16.2914 2.17736 16.4572 2.3542C16.4461 2.3542 16.424 2.3542 16.413 2.3542C16.4351 2.36526 16.5346 2.40947 16.623 2.47578C16.3909 2.59736 16.2582 2.3542 16.0703 2.32105C16.1698 2.38736 16.1698 2.38736 16.203 2.40947C16.1919 2.42052 16.1919 2.43157 16.1809 2.44262C16.3467 2.53105 16.5235 2.58631 16.6672 2.69684C16.6119 2.67473 16.6009 2.67473 16.5235 2.66368C16.5346 2.68578 16.5456 2.70789 16.5567 2.71894C16.5456 2.72999 16.5346 2.74105 16.5235 2.7521C16.5788 2.79631 16.5898 2.80736 16.6451 2.90684C16.634 2.91789 16.634 2.92894 16.623 2.93999C16.424 2.89578 16.3688 2.90684 16.3246 2.91789C16.3467 3.02841 16.623 3.18315 16.623 3.18315C16.623 3.18315 16.9435 3.37105 17.1093 3.56999C17.1093 3.58105 17.1093 3.60315 17.1093 3.62526C17.1535 3.66947 17.1535 3.66947 17.264 3.79105C17.264 3.79105 17.264 3.79105 17.2419 3.8021C17.264 3.90157 17.3414 3.96789 17.3856 4.05631C17.3967 4.06736 17.4077 4.11157 17.4077 4.15578C17.3967 4.14473 17.3856 4.13368 17.3746 4.12262C17.3635 4.11157 17.3746 4.08947 17.3856 4.06736C17.0651 3.71368 16.634 3.50368 16.2803 3.1942C16.2914 3.18315 16.3024 3.16105 16.3135 3.14999C16.1809 2.78526 15.9267 2.66368 15.8493 2.66368C15.9267 2.71894 15.9488 2.72999 16.0151 2.7742C16.004 2.7742 15.9819 2.7742 15.9709 2.7742C15.9819 2.80736 15.993 2.85157 16.004 2.87368C15.783 2.72999 15.7609 2.71894 15.6614 2.69684C15.6503 2.70789 15.6393 2.71894 15.6393 2.72999C15.6503 2.80736 15.6503 2.80736 15.9267 3.03947C15.8272 3.1721 15.7167 3.07262 15.6946 3.05052C15.7056 3.03947 15.7167 3.02841 15.7277 3.02841C15.7277 3.02841 15.7277 3.02841 15.7167 3.02841C15.6946 3.02841 15.6614 3.01736 15.6393 3.01736C15.6393 3.01736 15.6393 3.01736 15.6061 3.01736C15.573 3.01736 15.5398 3.01736 15.5067 3.00631C15.374 3.03947 15.2303 2.89578 15.1088 3.02841C15.0093 3.13894 14.9982 3.65841 15.4735 3.66947C15.3409 3.54789 15.3409 3.54789 15.3188 3.50368C15.3188 3.50368 15.4956 3.6142 15.5288 3.71368C15.5509 3.70262 15.573 3.69157 15.5951 3.68052C15.573 3.65841 15.5509 3.63631 15.5398 3.60315C15.6503 3.60315 15.794 3.63631 15.9267 3.76894C15.9156 3.76894 15.8935 3.76894 15.8824 3.75789C16.6009 4.17789 16.7777 4.98473 16.6672 5.22789C16.6561 5.22789 16.634 5.23894 16.623 5.24999C16.5677 5.22789 16.5677 5.22789 16.5124 5.16157C16.5014 5.17263 16.4903 5.18368 16.4903 5.19473C16.4793 5.18368 16.4793 5.17263 16.4682 5.16157C16.4793 5.19473 16.4903 5.23894 16.4903 5.26105C16.4793 5.26105 16.4572 5.26105 16.4461 5.24999C16.634 5.40473 16.4572 5.64789 16.5788 5.81368C16.6893 5.96841 16.8882 6.00157 16.9767 6.16736C17.0098 6.23368 17.0098 6.23368 17.0651 6.47683C17.043 6.47683 17.0098 6.48789 16.9877 6.49894C16.9877 6.50999 16.9877 6.5321 16.9877 6.54315C16.7556 6.63157 16.6561 6.18947 16.6672 6.14526C16.6782 6.15631 16.6893 6.16736 16.7003 6.16736C16.6893 6.10105 16.6782 6.07894 16.5788 6.02368H16.5677C16.4903 6.00157 16.4019 5.99052 16.3246 5.95736C16.3135 5.93526 16.3246 5.89105 16.3356 5.86894C16.2361 5.82473 16.203 5.6921 16.0703 5.6921C15.9488 5.6921 16.0151 5.86894 15.8935 5.86894C15.8824 5.86894 15.8603 5.85789 15.8493 5.85789C15.8382 5.75841 15.8272 5.75841 15.7719 5.73631C15.783 5.72526 15.794 5.70315 15.794 5.6921C15.794 5.65894 15.7388 5.5042 15.6282 5.54841C15.6282 5.54841 15.3188 5.75841 15.4624 5.9242C15.6393 6.12315 15.9156 5.99052 16.1146 6.08999C16.0924 6.20052 15.9709 6.26684 15.993 6.38841C16.004 6.43262 16.004 6.47684 16.1919 6.67578C16.3577 6.85262 16.4793 6.96315 16.6009 7.06262C16.5898 7.07368 16.5788 7.07368 16.5677 7.08473C16.5014 7.05157 16.4682 6.98526 16.3909 6.9742C16.4019 6.9742 16.5567 7.05157 16.5788 7.25052C16.5677 7.26157 16.5567 7.27262 16.5567 7.28368C16.7335 7.31684 16.7335 7.31684 16.7667 7.44947C16.7667 7.46052 16.7556 7.47157 16.7446 7.48262C16.7888 7.5821 16.7888 7.59315 16.7777 7.65947C16.7667 7.65947 16.7446 7.65947 16.7335 7.67052C16.7114 7.72578 16.6893 8.01315 16.7446 8.12368C16.7446 8.12368 16.7446 8.12368 16.7556 8.11262C16.7335 8.26736 16.7224 8.28947 16.6119 8.41105C16.4793 8.54368 16.3024 8.58789 16.1588 8.69841C16.1477 8.6542 16.1367 8.6321 16.0814 8.59894C16.1256 8.68736 16.1367 8.70947 16.0261 8.8421C16.0261 8.8421 15.7719 8.64315 15.7277 9.08526C15.8161 9.16262 15.8603 9.22894 15.8161 9.39473C15.7719 9.52736 15.6503 9.54947 15.584 9.56052C15.5951 9.53841 15.6172 9.4942 15.6282 9.4721C15.6393 9.12947 15.6393 9.12947 15.6946 9.08526C15.6946 9.02999 15.6946 8.91947 15.6172 8.88631C15.573 8.8642 15.1198 8.90841 15.153 9.16262C15.2082 9.63789 15.7277 9.86999 15.794 10.3453C15.8161 10.511 15.7498 11.0968 15.4956 10.9089C15.4846 11.0305 15.374 11.3621 15.1972 11.2737C15.2193 11.2516 15.2414 11.2074 15.2524 11.1853C15.164 10.8095 14.744 10.6879 14.6003 10.3563C14.3019 10.5553 14.4014 11.0305 14.4124 11.0858C14.4567 11.3068 14.6556 11.4174 14.7772 11.5942C14.9761 11.8926 14.9098 12.2574 15.0535 12.5779C15.0646 12.5889 15.0867 12.6 15.0977 12.611C14.7993 12.6663 14.6998 12.4232 14.5782 11.9037C14.4788 11.4616 14.4346 11.3179 14.2688 11.4505C14.2246 11.3068 14.2135 11.2405 14.2467 10.9753C14.3351 10.2789 14.0256 9.75947 13.9261 9.62683C13.9593 9.82578 13.9261 9.84789 13.8709 9.86999ZM6.64245 5.11736C6.67561 5.12841 6.67561 5.12841 6.70876 5.11736C6.60929 5.2721 6.6314 5.33841 6.81929 5.49315C6.94087 5.59263 6.96297 5.62578 6.97403 5.68105C6.8414 5.65894 6.77508 5.9021 6.78613 5.97947C6.79719 6.1121 6.91876 6.16736 7.00719 6.22262C7.02929 6.23368 7.04034 6.24473 7.04034 6.25578C7.17297 6.33315 7.2835 6.20052 7.40508 6.22262C7.39403 5.75841 7.39403 5.4821 7.19508 5.28315C7.0514 5.15052 7.0514 5.11736 7.04034 5.0621C7.06245 5.03999 7.09561 5.02894 7.11771 5.01789C7.08455 4.94052 7.08455 4.94052 7.30561 4.89631C7.27245 4.8742 7.2614 4.86315 7.2835 4.78578C7.29455 4.73052 7.31666 4.65315 7.15087 4.6421C6.96297 4.63105 6.90771 4.84105 6.74192 4.8742C6.71982 4.8742 6.70876 4.86315 6.68666 4.8521C6.69771 4.94052 6.62034 5.01789 6.64245 5.11736ZM5.41561 4.77473C5.3714 4.84105 5.45982 4.8521 5.66982 4.89631C5.69192 4.8521 5.71403 4.76368 5.78034 4.78578C5.78034 4.76368 5.78034 4.75262 5.74719 4.74157C5.72508 4.73052 5.71403 4.71947 5.72508 4.69736C5.76929 4.70841 5.82455 4.68631 5.87982 4.65315C5.89087 4.65315 5.89087 4.6421 5.90192 4.6421C5.80245 4.58683 5.6035 4.65315 5.47087 4.75262C5.48192 4.74157 5.48192 4.74157 5.48192 4.74157C5.45982 4.73052 5.43771 4.75262 5.41561 4.77473C5.42666 4.76368 5.42666 4.76368 5.43771 4.75262L5.41561 4.77473ZM5.65876 5.58157C5.83561 5.59262 5.92403 5.4821 5.95719 5.44894C6.04561 5.31631 5.86876 5.10631 5.64771 4.96262C5.49297 4.86315 5.32719 5.03999 5.17245 4.96262C5.1614 4.92947 5.1614 4.92947 5.30508 4.80789C5.1835 4.74157 5.10613 4.70841 4.99561 4.76368L4.9735 4.74157L4.98455 4.75262C4.88508 4.80789 4.81876 4.92947 4.7414 5.0621C4.65297 5.21684 4.61982 5.24999 4.5314 5.31631C4.56455 5.33841 4.57561 5.34947 4.59771 5.40473C4.61982 5.44894 4.65297 5.51526 4.68613 5.52631C4.88508 5.57052 5.01771 5.36052 5.21666 5.40473C5.38245 5.43789 5.49297 5.55947 5.65876 5.58157ZM11.7488 11.3179C11.7377 11.3179 11.7377 11.3289 11.7267 11.34C11.7377 11.3732 11.7488 11.3732 11.7488 11.3732V11.3621C11.7488 11.351 11.7598 11.351 11.7598 11.34C11.7598 11.3289 11.7598 11.3179 11.7488 11.3179ZM19.8946 13.6832C19.9388 13.5174 19.9277 13.3516 19.8835 13.3626C19.8724 13.3626 19.8614 13.3737 19.8503 13.3958C19.8503 13.4068 19.8503 13.4179 19.8503 13.44C19.8503 13.44 19.8503 13.44 19.8393 13.44C19.8282 13.451 19.8282 13.451 19.8282 13.4621C19.8282 13.4621 19.8282 13.4621 19.8393 13.451C19.8503 13.5063 19.8282 13.661 19.8282 13.661C19.8282 13.6721 19.8061 13.6832 19.8061 13.6832C19.773 13.7274 19.7619 13.7826 19.7288 13.8158C19.7067 13.8379 19.6956 13.8379 19.6846 13.8268C19.6514 13.8047 19.6403 13.7937 19.5851 13.8379C19.574 13.8489 19.574 13.8489 19.5519 13.9484C19.563 13.9484 19.7067 14.0258 19.8172 13.6832C19.8172 13.7384 19.8172 13.7495 19.8172 13.7605C19.8393 13.7384 19.8393 13.7274 19.8503 13.7053L19.8614 13.6832H19.8946C19.8946 13.6942 19.8946 13.6832 19.8946 13.6832ZM11.7267 11.3621C11.7377 11.561 11.7267 11.7047 11.7046 11.7932C11.6493 12.0031 11.5167 11.8153 11.5167 11.8042C11.4614 11.7047 11.4835 11.5942 11.5167 11.4505C11.5498 11.3068 11.5609 11.2184 11.5167 11.141C11.5056 11.141 11.4946 11.13 11.4835 11.1079L11.4946 11.1189C11.4946 11.1189 11.4946 11.1189 11.4835 11.1079C11.4946 11.0968 11.4946 11.0968 11.5167 11.0968C11.5277 11.0968 11.6051 11.0968 11.6935 11.2074C11.7156 11.2405 11.7488 11.2958 11.7156 11.3289C11.7156 11.34 11.7156 11.351 11.7267 11.3621ZM11.5719 11.1632C11.5498 11.141 11.5388 11.1521 11.5388 11.1521C11.5388 11.1521 11.5388 11.1632 11.5498 11.1632C11.5498 11.1632 11.5609 11.1632 11.5719 11.1632ZM19.0767 13.2079C18.8888 13.2079 18.8667 13.4621 18.6898 13.4842C18.6235 13.4953 18.6567 13.2742 18.6567 13.2742V13.2853C18.6788 13.0753 18.6898 12.9868 18.5572 12.9979C18.5019 13.0089 18.4467 13.0421 18.3803 13.1195C18.3914 13.0532 18.3693 13.0421 18.3582 13.031C18.3472 13.031 18.3361 13.0421 18.3251 13.0642C18.4024 13.2079 18.4798 13.3295 18.6124 13.2853C18.5682 13.3516 18.4798 13.3405 18.4246 13.3847C18.513 13.4621 18.4024 13.5505 18.4467 13.6279C18.4688 13.6279 18.4798 13.6279 18.5461 13.5063C18.5351 13.5616 18.5351 13.5947 18.5682 13.6389C18.6014 13.6832 18.6677 13.6942 18.7009 13.7274C18.7672 13.7826 18.7672 13.7937 18.7782 14.2026C18.7672 14.1805 18.7451 14.1142 18.6124 14.3684C18.6788 14.3353 18.7561 14.3353 18.8224 14.3132C18.7561 14.5121 18.8998 14.501 18.9109 14.49C18.9219 14.4789 19.0435 14.3905 19.0324 14.3353H19.0214C19.0877 14.3021 19.0877 14.3021 19.0988 14.291V14.28V14.291C19.1098 14.2689 19.1209 14.2579 19.143 14.2137C19.154 14.28 19.2203 14.3021 19.2424 14.3684C19.2646 14.4679 19.2093 14.5674 19.2535 14.6668C19.3088 14.7884 19.364 14.7332 19.364 14.7221C19.3861 14.7 19.3861 14.6558 19.3972 14.6226C19.4193 14.501 19.364 14.3905 19.3751 14.28C19.3861 14.1584 19.4746 14.0589 19.4856 13.9374C19.4856 13.9042 19.4856 13.86 19.4856 13.8268C19.4746 13.8268 19.3088 13.1968 19.0767 13.2079ZM14.9982 13.9153C14.9872 13.8821 14.9872 13.8821 14.9872 13.871C15.0203 13.8489 15.0646 13.871 15.1088 13.8489C15.1419 13.8268 15.1972 13.7826 15.2082 13.7384C15.2635 13.5726 15.2082 13.4068 15.1861 13.3184C15.2967 13.4953 15.3188 13.5395 15.4182 13.4842C15.3851 13.451 15.4072 13.4068 15.4182 13.4068C15.4293 13.4068 15.4403 13.4179 15.4403 13.4179L15.4182 13.3958H15.4293C15.4293 13.3958 15.4182 13.3958 15.4182 13.3847C15.2193 13.1968 15.2193 13.1968 15.1419 13.241C15.0756 13.1305 14.9982 13.031 14.954 12.8984C14.9319 12.8321 14.943 12.7437 14.9098 12.6774C14.8877 12.6332 14.8546 12.6221 14.8103 12.6C14.7993 12.6221 14.7993 12.6332 14.7993 12.6553C14.7772 12.6221 14.7551 12.611 14.7219 12.5889C14.744 12.6 14.744 12.6 14.7551 12.5889C14.7772 12.5116 14.6667 12.4342 14.6667 12.4342C14.5782 12.3679 14.4788 12.3347 14.4014 12.2574C14.2909 12.1689 14.2246 12.0474 14.114 11.97C14.0698 11.9479 13.9924 11.8816 13.893 11.8926C13.8819 11.8926 13.8709 11.8926 13.8598 11.8926C14.0256 11.9258 14.2688 12.4453 14.6003 13.2079C14.8214 13.7384 14.9209 13.9705 14.9982 13.9153ZM18.4135 13.3958C18.4135 13.3847 18.4135 13.3847 18.4135 13.3958V13.3958ZM18.8335 14.7553C18.5903 15.0758 18.4909 15.4847 18.2035 15.7721C18.0377 15.9379 17.9935 15.6063 17.9935 15.5953C17.9824 15.4958 17.9824 15.4958 18.2919 14.9321C18.2698 14.9542 18.2698 14.9542 18.2146 15.0095C18.2146 14.9763 18.2367 14.9432 18.2367 14.91C18.2035 14.9874 18.2035 14.9874 17.9272 14.8216C17.8167 15.0205 17.8167 15.0205 17.7614 15.0426C17.6509 15.0758 17.4851 15.2084 17.4188 15.4737C17.3635 15.4405 17.3635 15.4405 17.2861 15.4737C17.2972 15.3742 17.1867 15.3521 17.1646 15.2747C17.1535 15.2968 16.8661 15.5842 16.7224 15.6395C16.7114 15.7058 16.7114 15.7168 16.6782 15.7832C16.6782 15.7721 16.6782 15.7721 16.6672 15.761C16.6451 15.7832 16.6451 15.7832 16.623 15.8384C16.623 15.8053 16.623 15.7721 16.6451 15.6726C16.5788 15.7168 16.5235 15.75 16.3798 15.9158C16.2361 16.0816 16.1919 16.1147 16.1146 16.1589C15.993 16.2253 15.8493 16.2363 15.7167 16.3026C15.5509 16.38 15.4403 16.5347 15.2414 16.5568C15.2414 16.5347 15.2414 16.5126 15.2524 16.4905C14.9761 16.6342 14.8877 16.9547 14.8546 17.0874C14.8324 17.1537 14.8324 17.1537 14.8103 17.1758C14.8103 17.1647 14.8103 17.1426 14.8103 17.1316C14.6335 17.3416 14.6998 17.6289 14.5451 17.85C14.4456 17.9826 14.2909 18.06 14.2135 18.2037C14.2135 18.2147 14.2135 18.2258 14.2135 18.2368C14.2909 18.3032 14.523 18.2147 14.6888 18.1484C14.6998 18.1484 15.8051 17.7395 16.004 17.8942C16.004 17.9274 16.004 17.9274 15.8051 18.27C15.9488 18.1705 16.1146 18.0821 16.2582 17.9716C16.1698 18.1484 15.9709 18.1926 15.8272 18.3032C15.8824 18.2921 15.9046 18.281 16.0593 18.1705C16.0482 18.1816 16.0482 18.1816 15.8714 18.3363C15.8824 18.3363 15.8824 18.3474 15.8935 18.3474C15.8493 18.48 15.6724 18.5242 15.6503 18.69C15.6724 18.7121 15.6724 18.7121 15.9488 18.6237C15.9156 18.6568 15.9156 18.6568 15.8824 18.6679C15.8935 18.6679 15.9046 18.6679 15.9046 18.6679C15.8935 18.701 15.8935 18.701 15.8493 18.7453C17.0209 18.1926 17.7282 17.4079 17.9714 17.0984C17.9603 17.1095 17.9382 17.1316 17.9272 17.1537C17.9493 17.1205 17.9714 17.0984 18.0046 17.0653C18.0046 17.0763 17.9935 17.0763 17.9935 17.0874L18.0046 17.0763C18.0156 17.0653 18.0156 17.0542 18.0267 17.0542C18.0267 17.0542 18.0156 17.0653 18.0156 17.0763C18.0488 17.0321 18.1372 16.9105 18.2035 16.7447C18.2588 16.601 18.3251 16.4684 18.3693 16.3358C18.4135 16.2142 18.3803 16.0705 18.4356 15.96C18.6788 15.4847 18.6788 15.4847 18.6788 15.3189C18.7119 14.9542 18.7672 14.8658 18.8335 14.7553C18.8446 14.7553 18.8446 14.7553 18.8335 14.7553C18.8446 14.7553 18.8446 14.7553 18.8335 14.7553ZM17.7835 13.5726C17.8167 13.5947 17.8719 13.5726 17.883 13.5284C17.883 13.5174 17.883 13.5174 17.883 13.5063C17.883 13.4732 17.8388 13.44 17.7835 13.44C17.7503 13.451 17.7393 13.4732 17.7393 13.4842C17.7503 13.5063 17.7503 13.5505 17.7835 13.5726ZM17.5514 11.6274C17.5403 11.6384 17.5403 11.6384 17.5293 11.6495C17.5403 11.6274 17.5514 11.6274 17.5514 11.6274ZM17.9935 11.6384C18.0046 11.7489 18.0046 11.7489 18.0267 11.76C18.0377 11.7268 18.0488 11.6937 18.0488 11.6605C18.0488 11.6605 18.104 11.2626 17.9603 11.0968C17.9714 11.0858 17.9714 11.0858 17.9714 10.9753C17.9603 10.9974 17.9493 11.0195 17.9493 11.0416C17.9493 11.0526 17.9493 11.0637 17.9603 11.0747C17.9161 11.0416 17.9161 11.0416 17.9051 10.8316C18.0046 10.8758 17.9714 10.721 17.9382 10.6547C17.9051 10.5663 17.894 10.5663 17.8056 10.5774C17.7393 10.3563 17.7393 10.3563 17.7172 10.3563C17.7061 10.3674 17.7061 10.3674 17.6951 10.4005C17.684 10.301 17.5624 10.301 17.5403 10.3232C17.5293 10.3342 17.5293 10.3563 17.5293 10.3674C17.5182 10.3342 17.5182 10.301 17.5182 10.2458C17.5182 10.2237 17.5182 10.2126 17.5182 10.2016C17.5182 10.1905 17.5182 10.1905 17.5182 10.1795C17.5072 10.0026 17.5624 9.81473 17.4961 9.63789C17.4409 9.50526 17.264 9.59368 17.1977 9.46105V9.44999C17.1977 9.44999 17.1977 9.46105 17.2088 9.46105C17.2309 9.61578 17.1646 9.78157 17.2419 9.93631C17.2309 9.93631 17.2088 9.93631 17.1977 9.94736C17.1756 10.0358 17.2198 10.2126 17.3082 10.2789C17.3414 10.2568 17.3414 10.2458 17.3193 10.2016C17.3635 10.2347 17.3635 10.2347 17.3414 10.3784C17.3303 10.3784 17.3193 10.3784 17.3082 10.3784C17.2861 10.4337 17.3193 10.4779 17.4409 10.6105C17.5072 10.5221 17.4298 10.4337 17.3746 10.3784C17.3967 10.3674 17.4298 10.3674 17.4961 10.3784C17.4851 10.4116 17.5072 10.4337 17.5182 10.4337C17.5293 10.4226 17.5403 10.4226 17.5293 10.3784C17.6067 10.4005 17.6288 10.4779 17.6951 10.5221C17.684 10.4668 17.6509 10.4447 17.6509 10.4337C17.6509 10.4116 17.6619 10.3453 17.7282 10.4116C17.7724 10.4558 17.8056 10.5332 17.8167 10.5553H17.8056C17.7946 10.6216 17.7946 10.6216 17.894 10.7542C17.8719 10.7763 17.8609 10.7763 17.8388 10.7542H17.8498C17.8498 10.7321 17.8498 10.7321 17.8388 10.71C17.8277 10.721 17.8277 10.721 17.8277 10.7542L17.8167 10.7432C17.7946 10.7984 17.7946 10.8426 17.8167 10.9089C17.8167 10.9089 17.8167 10.9089 17.8056 10.9089C17.8056 10.9089 17.8056 10.9089 17.8388 10.9753L17.9382 11.1521C17.9161 11.2184 17.9161 11.2184 17.7614 11.3953C17.7614 11.3842 17.7614 11.3842 17.7724 11.3732C17.7503 11.34 17.6177 11.34 17.5956 11.4284C17.5846 11.4837 17.5846 11.5389 17.5624 11.5942C17.6177 11.5279 17.6288 11.4947 17.6288 11.4837C17.673 11.55 17.8056 11.4284 17.8056 11.5168C17.8056 11.5832 17.7614 11.6384 17.7835 11.7047C17.8056 11.771 17.8719 11.7932 17.9051 11.8374C17.894 11.7821 17.9714 11.7158 17.9935 11.6384ZM17.5956 11.1963C17.6177 11.1963 17.673 11.1189 17.6951 11.0747C17.6951 11.0747 17.7061 11.0084 17.7061 10.9753C17.7172 10.8647 17.6619 10.8758 17.6619 10.8758C17.6177 10.9089 17.5514 11.1963 17.5956 11.1963ZM17.6619 10.6879C17.6951 10.6216 17.7061 10.5884 17.7061 10.5663C17.7393 10.5995 17.7835 10.6658 17.7724 10.721C17.7724 10.7321 17.7724 10.7432 17.7614 10.7542C17.7282 10.6879 17.6951 10.6768 17.6509 10.721V10.71C17.6509 10.6768 17.6509 10.6768 17.6619 10.6879C17.6619 10.6768 17.6619 10.6768 17.6619 10.6879ZM18.1482 12.6995C18.1372 12.7105 18.1372 12.7216 18.1261 12.7326C18.1372 12.6774 18.1261 12.6332 18.1372 12.5779C18.1482 12.5337 18.1482 12.5337 18.1593 12.5226C18.1593 12.5226 18.1482 12.5226 18.1482 12.5337C18.1151 12.5558 18.0819 12.611 18.0598 12.7768C18.0598 12.7658 18.0598 12.7658 18.0598 12.7658C18.0488 12.7879 18.0598 12.9647 18.0709 12.9979C18.0819 13.0753 18.104 13.0863 18.1151 13.0753C18.0709 12.8763 18.2035 12.8763 18.2035 12.8763C18.1814 12.7989 18.1924 12.7658 18.2256 12.6332C18.1924 12.6221 18.1482 12.6774 18.1482 12.6995ZM11.7377 11.3842C11.7377 11.3842 11.7377 11.3953 11.7377 11.3842C11.7377 11.3732 11.7267 11.351 11.7156 11.34C11.7156 11.34 11.7156 11.351 11.7156 11.3621C11.7267 11.3732 11.7377 11.3842 11.7377 11.3842ZM7.36087 15.4405L7.34982 15.4184C7.34982 15.4295 7.34982 15.4295 7.36087 15.4405C7.33876 15.4074 7.33876 15.4074 7.32771 15.3963C7.32771 15.4074 7.32771 15.4074 7.31666 15.5842C7.29455 15.551 7.29455 15.551 7.2835 15.5179C7.23929 15.6284 7.23929 15.6837 7.27245 15.9821C7.31666 16.3468 7.25034 17.0432 7.04034 17.0653C6.96297 17.0653 6.83034 16.9658 6.77508 16.8C6.73087 16.6453 6.66455 15.8163 6.66455 15.8163C6.67561 15.7058 6.77508 15.6726 6.83034 15.5953C6.8414 15.5732 6.85245 15.54 6.8635 15.5179C6.87455 15.5068 6.88561 15.4958 6.89666 15.4847C6.97403 15.3963 6.98508 15.2858 7.0514 15.1863C7.08455 15.131 7.09561 15.0647 7.15087 15.0095C7.21718 14.9874 7.2614 15.1421 7.29455 15.2637C7.32771 15.3632 7.33876 15.3963 7.36087 15.4405ZM7.33876 15.3963C7.33876 15.3853 7.33876 15.3853 7.32771 15.3742V15.3853C7.33876 15.3853 7.33876 15.3963 7.33876 15.3963ZM17.1867 9.46105C17.1756 9.44999 17.1867 9.44999 17.1867 9.46105V9.46105Z" fill="#2F6E24"/>
</g>
<defs>
<clipPath id="clip0_96_125">
<rect width="21" height="21" fill="white"/>
</clipPath>
</defs>
</svg>
